<?xml version="1.0" encoding="UTF-8" standalone="no"?>
<!-- Created with Inkscape (http://www.inkscape.org/) -->

<svg
   width="300mm"
   height="300mm"
   viewBox="0 0 300 300"
   version="1.1"
   id="svg5"
   xml:space="preserve"
   inkscape:version="1.2.2 (b0a8486541, 2022-12-01)"
   sodipodi:docname="pictogram.svg"
   xmlns:inkscape="http://www.inkscape.org/namespaces/inkscape"
   xmlns:sodipodi="http://sodipodi.sourceforge.net/DTD/sodipodi-0.dtd"
   xmlns="http://www.w3.org/2000/svg"
   xmlns:svg="http://www.w3.org/2000/svg"><sodipodi:namedview
     id="namedview7"
     pagecolor="#ffffff"
     bordercolor="#000000"
     borderopacity="0.25"
     inkscape:showpageshadow="2"
     inkscape:pageopacity="0.0"
     inkscape:pagecheckerboard="0"
     inkscape:deskcolor="#d1d1d1"
     inkscape:document-units="mm"
     showgrid="false"
     inkscape:zoom="0.73673541"
     inkscape:cx="523.25434"
     inkscape:cy="561.93851"
     inkscape:window-width="1854"
     inkscape:window-height="1043"
     inkscape:window-x="0"
     inkscape:window-y="0"
     inkscape:window-maximized="1"
     inkscape:current-layer="layer1" /><defs
     id="defs2" /><g
     inkscape:label="레이어 1"
     inkscape:groupmode="layer"
     id="layer1"><path
       id="path234"
       style="fill:none;fill-opacity:1;stroke:#00d308;stroke-width:4.00001;stroke-linecap:round;stroke-linejoin:round;stroke-opacity:1"
       d="M 150.29888,21.618717 A 132.98877,132.99258 0.00609015 0 0 19.421172,129.40774 132.98877,132.99258 0.00609015 0 0 100.78692,278.16231 l 29.51167,-74.09029 a 53.19551,53.197033 0.00609015 0 1 -32.530024,-59.49401 53.19551,53.197033 0.00609015 0 1 52.351084,-43.11584 53.19551,53.197033 0.00609015 0 1 52.15701,43.35061 53.19551,53.197033 0.00609015 0 1 -32.79668,59.34832 l 29.17796,74.22058 A 132.98877,132.99258 0.00609015 0 0 280.69113,129.99493 132.98877,132.99258 0.00609015 0 0 150.29888,21.618717 Z" /><!--!Font Awesome Free 6.7.2 by @fontawesome - https://fontawesome.com License - https://fontawesome.com/license/free Copyright 2025 Fonticons, Inc.--><path
       d="m 92.338549,239.60731 c -0.747605,-0.21549 -1.525995,0.21988 -1.741482,0.96749 l -5.629035,19.70162 c -0.215487,0.74761 0.219884,1.526 0.96749,1.74148 0.747607,0.21549 1.525997,-0.21988 1.741483,-0.96749 l 5.629036,-19.70162 c 0.215485,-0.74761 -0.219885,-1.526 -0.967492,-1.74148 z m 3.544534,5.28161 c -0.54971,0.54971 -0.54971,1.44244 0,1.99215 l 3.927132,3.93153 -3.93153,3.93153 c -0.54971,0.54971 -0.54971,1.44244 0,1.99215 0.549711,0.54971 1.44244,0.54971 1.992152,0 l 4.925403,-4.9254 c 0.54971,-0.54971 0.54971,-1.44244 0,-1.99215 l -4.925403,-4.92541 c -0.549712,-0.54971 -1.442441,-0.54971 -1.992152,0 z m -13.487696,0 c -0.549711,-0.54971 -1.44244,-0.54971 -1.992151,0 l -4.925406,4.92541 c -0.54971,0.54971 -0.54971,1.44244 0,1.99215 l 4.925406,4.92541 c 0.549711,0.54971 1.44244,0.54971 1.992151,0 0.54971,-0.54971 0.54971,-1.44244 0,-1.99215 l -3.931529,-3.92714 3.931529,-3.93153 c 0.54971,-0.54971 0.54971,-1.44244 0,-1.99215 z"
       id="path1734"
       style="stroke-width:0.264582;fill:#225ed6;fill-opacity:1" /><!--!Font Awesome Free 6.7.2 by @fontawesome - https://fontawesome.com License - https://fontawesome.com/license/free Copyright 2025 Fonticons, Inc.--><path
       d="m 105.36381,204.4737 c 0.3722,0.16446 0.61456,0.53666 0.61456,0.94781 v 1.73115 h 0.69246 c 3.05981,0 5.53969,2.47987 5.53969,5.53969 v 7.21458 c 1.22479,0.53233 2.07738,1.75279 2.07738,3.17234 0,1.91292 -1.54938,3.4623 -3.4623,3.4623 -1.91293,0 -3.46231,-1.54938 -3.46231,-3.4623 0,-1.41955 0.85259,-2.64001 2.07738,-3.17234 v -7.21458 c 0,-1.52774 -1.2421,-2.76984 -2.76984,-2.76984 h -0.69246 v 1.73115 c 0,0.41115 -0.24236,0.78334 -0.61456,0.94781 -0.3722,0.16446 -0.81364,0.0995 -1.1166,-0.17745 l -3.4623,-3.11607 c -0.22072,-0.19908 -0.3419,-0.47607 -0.3419,-0.77037 0,-0.29429 0.1255,-0.57561 0.3419,-0.77036 l 3.4623,-3.11607 c 0.30296,-0.27266 0.7444,-0.34191 1.1166,-0.17745 z m -8.733669,3.37142 a 1.0386922,1.0386922 0 1 0 -2.077384,0 1.0386922,1.0386922 0 1 0 2.077384,0 z m 0.34623,3.17234 v 8.88515 c 1.224792,0.53232 2.077384,1.75278 2.077384,3.17233 0,1.91293 -1.549382,3.46231 -3.462306,3.46231 -1.912924,0 -3.462306,-1.54938 -3.462306,-3.46231 0,-1.41955 0.852593,-2.64001 2.077384,-3.17233 v -8.88515 c -1.224791,-0.53233 -2.077384,-1.75279 -2.077384,-3.17234 0,-1.91292 1.549382,-3.4623 3.462306,-3.4623 1.912924,0 3.462306,1.54938 3.462306,3.4623 0,1.41955 -0.852592,2.64001 -2.077384,3.17234 z m -0.34623,12.06181 a 1.0386922,1.0386922 0 1 0 -2.077384,0 1.0386922,1.0386922 0 1 0 2.077384,0 z m 14.195459,1.03869 a 1.0386922,1.0386922 0 1 0 0,-2.07738 1.0386922,1.0386922 0 1 0 0,2.07738 z"
       id="path1743"
       style="stroke-width:0.264582;fill:#73c493;fill-opacity:1" /><!--!Font Awesome Free 6.7.2 by @fontawesome - https://fontawesome.com License - https://fontawesome.com/license/free Copyright 2025 Fonticons, Inc.--><path
       d="m 56.593049,214.32529 c 0,-1.57141 1.277602,-2.84901 2.849009,-2.84901 h 17.094049 c 1.571405,0 2.849006,1.2776 2.849006,2.84901 v 11.39602 H 76.536107 V 214.32529 H 59.442058 v 11.39602 h -2.849009 z m -2.849008,13.67524 c 0,-0.47187 0.382836,-0.85471 0.854703,-0.85471 h 26.780674 c 0.471868,0 0.854703,0.38284 0.854703,0.85471 0,1.88746 -1.531341,3.41881 -3.41881,3.41881 h -21.65246 c -1.887468,0 -3.41881,-1.53135 -3.41881,-3.41881 z m 12.508926,-8.64496 -1.379988,1.37999 1.379988,1.37999 c 0.418449,0.41844 0.418449,1.09508 0,1.50908 -0.418448,0.414 -1.095088,0.41845 -1.509084,0 l -2.136755,-2.13676 c -0.418449,-0.41845 -0.418449,-1.09509 0,-1.50908 l 2.136755,-2.13676 c 0.418448,-0.41845 1.095088,-0.41845 1.509084,0 0.413997,0.41845 0.418449,1.09509 0,1.50908 z m 4.985764,-1.51354 2.136756,2.13676 c 0.418448,0.41845 0.418448,1.09509 0,1.50908 l -2.136756,2.13676 c -0.418447,0.41845 -1.095087,0.41845 -1.509084,0 -0.413997,-0.41845 -0.418448,-1.09509 0,-1.50908 l 1.379989,-1.37999 -1.379989,-1.37999 c -0.418448,-0.41845 -0.418448,-1.09509 0,-1.50909 0.418448,-0.41399 1.095087,-0.41845 1.509084,0 z"
       id="path1752"
       style="stroke-width:0.264583;fill:#6822d6;fill-opacity:1" /><!--!Font Awesome Free 6.7.2 by @fontawesome - https://fontawesome.com License - https://fontawesome.com/license/free Copyright 2025 Fonticons, Inc.--><path
       d="m 77.335513,195.73316 c 0,0.11933 -0.137233,0.2148 -0.310264,0.2148 -0.196899,0.0179 -0.334133,-0.0776 -0.334133,-0.2148 0,-0.11934 0.137234,-0.2148 0.310266,-0.2148 0.178998,-0.0179 0.334131,0.0776 0.334131,0.2148 z m -1.855624,-0.2685 c -0.04177,0.11933 0.07757,0.25656 0.256567,0.29236 0.155131,0.0597 0.33413,0 0.36993,-0.11933 0.0358,-0.11933 -0.07757,-0.25657 -0.256565,-0.31026 -0.155133,-0.0418 -0.328164,0.0179 -0.369932,0.13723 z m 2.637253,-0.10143 c -0.173033,0.0418 -0.292366,0.15513 -0.274465,0.29236 0.0179,0.11933 0.173032,0.1969 0.352032,0.15513 0.173031,-0.0418 0.292365,-0.15513 0.274465,-0.27446 -0.0179,-0.11337 -0.178999,-0.19093 -0.352032,-0.17303 z m 3.926046,-22.86415 c -8.275723,0 -14.606321,6.28287 -14.606321,14.55859 0,6.617 4.16471,12.27933 10.113444,14.27219 0.763731,0.13723 1.032228,-0.33413 1.032228,-0.72196 0,-0.36993 -0.0179,-2.41052 -0.0179,-3.66352 0,0 -4.176642,0.895 -5.053737,-1.77805 0,0 -0.680197,-1.73629 -1.658725,-2.18379 0,0 -1.366361,-0.93676 0.09547,-0.91886 0,0 1.485692,0.11933 2.30312,1.53939 1.306694,2.30312 3.496448,1.64082 4.349677,1.24702 0.137233,-0.95466 0.525063,-1.61695 0.954661,-2.01075 -3.335348,-0.36993 -6.70053,-0.85323 -6.70053,-6.59313 0,-1.64082 0.453464,-2.46422 1.408126,-3.51435 -0.155132,-0.38783 -0.662298,-1.98689 0.155132,-4.05134 1.247027,-0.38783 4.116978,1.61099 4.116978,1.61099 1.193327,-0.33413 2.476153,-0.50716 3.747046,-0.50716 1.270894,0 2.55372,0.17303 3.747046,0.50716 0,0 2.869951,-2.00479 4.116979,-1.61099 0.81743,2.07042 0.310265,3.66351 0.155131,4.05134 0.954662,1.0561 1.539393,1.87949 1.539393,3.51435 0,5.7578 -3.514348,6.21723 -6.849696,6.59313 0.548929,0.47137 1.014327,1.36636 1.014327,2.76852 0,2.01075 -0.0179,4.49884 -0.0179,4.9881 0,0.38784 0.274465,0.8592 1.032226,0.72197 5.966634,-1.98093 10.012012,-7.64326 10.012012,-14.26026 0,-8.27572 -6.712462,-14.55859 -14.988184,-14.55859 z m -8.806753,20.57893 c -0.07757,0.0597 -0.05967,0.1969 0.04177,0.31026 0.09547,0.0955 0.232699,0.13723 0.310264,0.0597 0.07757,-0.0597 0.05967,-0.1969 -0.04177,-0.31027 -0.09547,-0.0955 -0.232699,-0.13723 -0.310266,-0.0597 z m -0.644397,-0.4833 c -0.04177,0.0776 0.0179,0.17303 0.137234,0.2327 0.09547,0.0597 0.214799,0.0418 0.256565,-0.0418 0.04177,-0.0776 -0.0179,-0.17303 -0.137233,-0.2327 -0.119332,-0.0358 -0.214798,-0.0179 -0.256566,0.0418 z m 1.933191,2.12412 c -0.09547,0.0776 -0.05967,0.25657 0.07757,0.36993 0.137233,0.13723 0.310265,0.15513 0.387831,0.0597 0.07757,-0.0776 0.04177,-0.25657 -0.07757,-0.36993 -0.131266,-0.13724 -0.310265,-0.15514 -0.387831,-0.0597 z m -0.680197,-0.87709 c -0.09547,0.0597 -0.09547,0.21479 0,0.35203 0.09547,0.13723 0.256566,0.1969 0.334132,0.13723 0.09547,-0.0776 0.09547,-0.2327 0,-0.36993 -0.08353,-0.13724 -0.238665,-0.1969 -0.334132,-0.11933 z"
       id="path1761"
       style="stroke-width:0.264583;fill:#6e6e6e;fill-opacity:1" /><!--!Font Awesome Free 6.7.2 by @fontawesome - https://fontawesome.com License - https://fontawesome.com/license/free Copyright 2025 Fonticons, Inc.--><path
       d="m 61.895563,141.08136 a 2.8944645,2.8944645 0 1 1 5.788929,0 2.8944645,2.8944645 0 1 1 -5.788929,0 z m -0.413495,8.15102 c -0.516868,0.57889 -0.82699,1.34903 -0.82699,2.18635 0,0.83733 0.310122,1.60746 0.82699,2.18635 v -4.37787 z m 7.463585,-2.54817 c -1.5351,1.35937 -2.501646,3.34932 -2.501646,5.56151 0,1.77286 0.620243,3.401 1.65398,4.67767 v 1.11126 c 0,0.91486 -0.739121,1.65398 -1.65398,1.65398 h -3.307959 c -0.914858,0 -1.65398,-0.73912 -1.65398,-1.65398 v -1.3852 c -1.953766,-0.93037 -3.307959,-2.92032 -3.307959,-5.23072 0,-3.19941 2.589514,-5.78892 5.788929,-5.78892 h 1.65398 c 1.240484,0 2.38793,0.38765 3.328635,1.04924 z m 12.384172,11.35044 v -1.11126 c 1.033737,-1.27667 1.653979,-2.90481 1.653979,-4.67767 0,-2.21219 -0.966545,-4.20214 -2.501645,-5.56667 0.940697,-0.66159 2.088151,-1.04924 3.328635,-1.04924 h 1.65398 c 3.199415,0 5.788929,2.58951 5.788929,5.78892 0,2.3104 -1.354201,4.30035 -3.307959,5.23072 v 1.3852 c 0,0.91486 -0.739122,1.65398 -1.65398,1.65398 h -3.30796 c -0.914858,0 -1.653979,-0.73912 -1.653979,-1.65398 z m 0.413495,-16.95329 a 2.8944645,2.8944645 0 1 1 5.788929,0 2.8944645,2.8944645 0 1 1 -5.788929,0 z m 6.202424,8.15102 v 4.37787 c 0.516868,-0.58406 0.826989,-1.34902 0.826989,-2.18635 0,-0.83732 -0.310121,-1.60746 -0.826989,-2.18635 z M 74.713906,138.18689 a 3.30796,3.30796 0 1 1 0,6.61592 3.30796,3.30796 0 1 1 0,-6.61592 z m -4.134949,14.05883 c 0,0.83733 0.310121,1.60229 0.82699,2.18635 v -4.37787 c -0.516869,0.58406 -0.82699,1.34902 -0.82699,2.18636 z m 7.442908,-2.18635 v 4.37787 c 0.516869,-0.58406 0.82699,-1.34902 0.82699,-2.18635 0,-0.83732 -0.310121,-1.60746 -0.82699,-2.18635 z m 3.30796,2.18635 c 0,2.3104 -1.354201,4.30035 -3.30796,5.23072 v 2.21219 c 0,0.91486 -0.739121,1.65398 -1.653979,1.65398 h -3.30796 c -0.914858,0 -1.653979,-0.73912 -1.653979,-1.65398 v -2.21219 c -1.953767,-0.93037 -3.30796,-2.92032 -3.30796,-5.23072 0,-3.19941 2.589514,-5.78893 5.788929,-5.78893 h 1.65398 c 3.199414,0 5.788929,2.58952 5.788929,5.78893 z"
       id="path1770"
       style="stroke-width:0.264583;fill:#ad68ff;fill-opacity:1" /><!--!Font Awesome Free 6.7.2 by @fontawesome - https://fontawesome.com License - https://fontawesome.com/license/free Copyright 2025 Fonticons, Inc.--><path
       d="m 44.643724,180.38554 c -3.896665,1.28268 -6.35303,4.92105 -6.314785,8.80977 1.388329,-1.39111 3.112217,-2.48059 5.105168,-3.13662 l 4.362678,-1.43608 c 0.436268,-0.14361 0.910713,0.0959 1.054322,0.53212 0.143606,0.43626 -0.09584,0.91071 -0.532107,1.05432 l -0.793214,0.26111 -3.569465,1.17497 c 0,0 0,0 0,0 -0.822959,0.2709 -1.590114,0.62786 -2.306395,1.05591 -1.187732,0.71517 -2.206204,1.62737 -3.038718,2.68718 0,0 0,0 0,0 -2.243857,2.86509 -3.063921,6.76707 -1.838355,10.49023 l 0.261104,0.79321 c 0.217043,0.65935 0.922119,1.0152 1.581477,0.79816 0.65936,-0.21705 1.015209,-0.92212 0.798166,-1.58148 l -0.261105,-0.79321 c -0.794741,-2.41435 -0.483295,-4.92358 0.65667,-6.98572 2.213694,3.41986 6.528529,5.06011 10.578879,3.72684 l 0.04958,-0.0163 c 6.537563,-2.19042 9.712471,-10.38974 7.093258,-18.34667 -0.695196,-2.11194 -1.727936,-3.99736 -2.997818,-5.58495 -0.241495,-0.29963 -0.737319,-0.11994 -0.805005,0.25867 -0.357596,2.05187 -1.811795,3.8438 -3.928685,4.54062 z"
       id="path1779"
       style="stroke-width:0.264583;fill:#38ca00;fill-opacity:1" /><!--!Font Awesome Free 6.7.2 by @fontawesome - https://fontawesome.com License - https://fontawesome.com/license/free Copyright 2025 Fonticons, Inc.--><path
       d="m 51.631971,154.22545 c 0,0.86153 -0.684434,1.65604 -1.837917,2.2974 -1.392797,0.77059 -3.470027,1.31622 -5.853574,1.47895 -0.177091,-0.0862 -0.354182,-0.16752 -0.540846,-0.23931 -1.885779,-0.78973 -4.39377,-1.23964 -7.083638,-1.23964 -0.397258,0 -0.784944,0.01 -1.172629,0.0287 l -0.05265,-0.0287 c -1.153484,-0.64136 -1.837917,-1.43587 -1.837917,-2.2974 0,-2.11552 4.116168,-3.82899 9.189585,-3.82899 5.073417,0 9.189585,1.71347 9.189586,3.82899 z m -16.814069,3.88165 c 0.488197,-0.0335 0.990752,-0.0526 1.498094,-0.0526 2.977043,0 5.619048,0.5887 7.299019,1.50288 1.186988,0.64614 1.890566,1.45023 1.890566,2.32611 0,0.19145 -0.0335,0.37811 -0.100512,0.55999 -0.220166,0.63179 -0.81366,1.21092 -1.675184,1.69912 0,0 0,0 0,0 -0.0048,0.005 -0.01436,0.005 -0.01914,0.01 0,0 0,0 0,0 0,0 0,0 0,0 -0.01436,0.01 -0.02872,0.0144 -0.04308,0.0239 -1.675185,0.92853 -4.345908,1.5316 -7.351668,1.5316 -2.8526,0 -5.403667,-0.54085 -7.093211,-1.3928 -0.09094,-0.0431 -0.177091,-0.0909 -0.263243,-0.1388 -1.148698,-0.63657 -1.833131,-1.43109 -1.833131,-2.29261 0,-1.66561 2.555853,-3.08713 6.12639,-3.60883 0.502556,-0.0718 1.024256,-0.12923 1.565101,-0.16752 z m 12.219277,3.77634 c 0,-1.04819 -0.507343,-1.90971 -1.153485,-2.55585 1.354507,-0.2106 2.594142,-0.54563 3.647117,-0.98118 0.780158,-0.32547 1.507665,-0.72751 2.10116,-1.22049 v 1.69433 c 0,0.92374 -0.78973,1.77569 -2.096374,2.43619 -0.698792,0.35419 -1.550742,0.65572 -2.507991,0.88546 0.0048,-0.0862 0.0096,-0.16752 0.0096,-0.25367 z m -1.531598,4.59479 c 0,0.86153 -0.684433,1.65604 -1.837917,2.2974 -0.08615,0.0479 -0.172305,0.0909 -0.263243,0.1388 -1.684758,0.85195 -4.235825,1.3928 -7.088425,1.3928 -3.00576,0 -5.676483,-0.60307 -7.351668,-1.5316 -1.153484,-0.64136 -1.837917,-1.43587 -1.837917,-2.2974 v -1.69433 c 0.59828,0.49299 1.321003,0.89503 2.10116,1.2205 1.890566,0.78973 4.398557,1.23963 7.088425,1.23963 2.689868,0 5.197859,-0.4499 7.088425,-1.23963 0.373326,-0.15316 0.732295,-0.33025 1.072118,-0.5217 0.291961,-0.16274 0.564776,-0.34461 0.823233,-0.53606 0.07179,-0.0526 0.138801,-0.11009 0.205809,-0.16274 v 0.16274 0.27281 z m 1.531598,0 v -1.53159 -1.23964 c 0.909385,-0.20102 1.746978,-0.45469 2.493632,-0.7658 0.780158,-0.32546 1.507665,-0.72751 2.10116,-1.22049 v 1.69433 c 0,0.50255 -0.239312,1.00511 -0.713151,1.47895 -0.780156,0.78016 -2.153809,1.42151 -3.891214,1.83792 0.0048,-0.0814 0.0096,-0.16752 0.0096,-0.25368 z m -10.721183,5.3606 c 2.689868,0 5.197859,-0.44991 7.088425,-1.23964 0.780157,-0.32547 1.507666,-0.72751 2.10116,-1.22049 v 1.69433 c 0,2.11552 -4.116168,3.82899 -9.189585,3.82899 -5.073417,0 -9.189585,-1.71347 -9.189585,-3.82899 v -1.69433 c 0.59828,0.49298 1.321003,0.89502 2.10116,1.22049 1.890566,0.78973 4.398557,1.23964 7.088425,1.23964 z"
       id="path1788"
       style="stroke-width:0.264582;fill:#eaea15;fill-opacity:1" /><!--!Font Awesome Free 6.7.2 by @fontawesome - https://fontawesome.com License - https://fontawesome.com/license/free Copyright 2025 Fonticons, Inc.--><path
       d="m 31.135311,117.85728 c -1.864837,0 -3.381008,1.51617 -3.381008,3.38101 v 3.38101 c 0,1.86483 1.516171,3.38101 3.381008,3.38101 h 20.286053 c 1.864838,0 3.381011,-1.51618 3.381011,-3.38101 v -3.38101 c 0,-1.86484 -1.516173,-3.38101 -3.381011,-3.38101 z m 14.791914,3.80364 a 1.2678783,1.2678783 0 1 1 0,2.53575 1.2678783,1.2678783 0 1 1 0,-2.53575 z m 2.535758,1.26787 a 1.2678784,1.2678784 0 1 1 2.535756,0 1.2678784,1.2678784 0 1 1 -2.535756,0 z m -17.327672,8.45253 c -1.864837,0 -3.381008,1.51617 -3.381008,3.381 v 3.38101 c 0,1.86484 1.516171,3.38101 3.381008,3.38101 h 20.286053 c 1.864838,0 3.381011,-1.51617 3.381011,-3.38101 v -3.38101 c 0,-1.86483 -1.516173,-3.381 -3.381011,-3.381 z m 14.791914,3.80363 a 1.26788,1.26788 0 1 1 0,2.53576 1.26788,1.26788 0 1 1 0,-2.53576 z m 2.958383,1.26788 a 1.2678784,1.2678784 0 1 1 2.535756,0 1.2678784,1.2678784 0 1 1 -2.535756,0 z"
       id="path1797"
       style="stroke-width:0.264583;fill:#7d7d7d;fill-opacity:1" /><!--!Font Awesome Free 6.7.2 by @fontawesome - https://fontawesome.com License - https://fontawesome.com/license/free Copyright 2025 Fonticons, Inc.--><path
       d="m 66.184085,119.56305 c 0,3.79855 3.08185,6.88039 6.8804,6.88039 h 17.58323 c 3.37808,0 6.1159,-2.73782 6.1159,-6.11592 0,-2.9576 -2.10234,-5.42785 -4.89272,-5.99167 0.1959,-0.51125 0.3058,-1.07029 0.3058,-1.65321 0,-2.53237 -2.05457,-4.58692 -4.58693,-4.58692 -0.94128,0 -1.82044,0.28668 -2.54671,0.77405 -1.32352,-2.29347 -3.79377,-3.832 -6.62715,-3.832 -4.2238,0 -7.64489,3.42108 -7.64489,7.64488 0,0.12901 0.005,0.25802 0.01,0.38702 -2.67571,0.94128 -4.59649,3.49276 -4.59649,6.49338 z"
       id="path1806"
       style="stroke-width:0.264583;fill:#00ffdd;fill-opacity:1" /><!--!Font Awesome Free 6.7.2 by @fontawesome - https://fontawesome.com License - https://fontawesome.com/license/free Copyright 2025 Fonticons, Inc.--><path
       d="m 48.361115,83.746788 c -1.282752,0 -2.323476,1.040723 -2.323476,2.323475 v 20.136757 c 0,1.28275 1.040724,2.32348 2.323476,2.32348 h 4.646951 v -3.87246 c 0,-1.28276 1.040724,-2.32348 2.323476,-2.32348 1.282752,0 2.323475,1.04072 2.323475,2.32348 v 3.87246 h 4.646951 c 1.282752,0 2.323476,-1.04073 2.323476,-2.32348 V 86.070263 c 0,-1.282752 -1.040724,-2.323475 -2.323476,-2.323475 z m 0.774492,11.617379 c 0,-0.425977 0.348521,-0.774493 0.774492,-0.774493 h 1.548983 c 0.425971,0 0.774492,0.348516 0.774492,0.774493 v 1.548971 c 0,0.42597 -0.348521,0.774487 -0.774492,0.774487 h -1.548983 c -0.425971,0 -0.774492,-0.348517 -0.774492,-0.774487 z m 5.421443,-0.774493 h 1.548983 c 0.425971,0 0.774492,0.348516 0.774492,0.774493 v 1.548971 c 0,0.42597 -0.348521,0.774487 -0.774492,0.774487 H 54.55705 c -0.425971,0 -0.774492,-0.348517 -0.774492,-0.774487 v -1.548971 c 0,-0.425977 0.348521,-0.774493 0.774492,-0.774493 z m 3.872459,0.774493 c 0,-0.425977 0.348521,-0.774493 0.774492,-0.774493 h 1.548983 c 0.425971,0 0.774492,0.348516 0.774492,0.774493 v 1.548971 c 0,0.42597 -0.348521,0.774487 -0.774492,0.774487 h -1.548983 c -0.425971,0 -0.774492,-0.348517 -0.774492,-0.774487 z m -8.51941,-6.970428 h 1.548983 c 0.425971,0 0.774492,0.348521 0.774492,0.774492 v 1.548983 c 0,0.425971 -0.348521,0.774492 -0.774492,0.774492 h -1.548983 c -0.425971,0 -0.774492,-0.348521 -0.774492,-0.774492 v -1.548983 c 0,-0.425971 0.348521,-0.774492 0.774492,-0.774492 z m 3.872459,0.774492 c 0,-0.425971 0.348521,-0.774492 0.774492,-0.774492 h 1.548983 c 0.425971,0 0.774492,0.348521 0.774492,0.774492 v 1.548983 c 0,0.425971 -0.348521,0.774492 -0.774492,0.774492 H 54.55705 c -0.425971,0 -0.774492,-0.348521 -0.774492,-0.774492 z m 5.421443,-0.774492 h 1.548983 c 0.425971,0 0.774492,0.348521 0.774492,0.774492 v 1.548983 c 0,0.425971 -0.348521,0.774492 -0.774492,0.774492 h -1.548983 c -0.425971,0 -0.774492,-0.348521 -0.774492,-0.774492 v -1.548983 c 0,-0.425971 0.348521,-0.774492 0.774492,-0.774492 z"
       id="path1815"
       style="stroke-width:0.264583;fill:#7d7d7d;fill-opacity:1" /><!--!Font Awesome Free 6.7.2 by @fontawesome - https://fontawesome.com License - https://fontawesome.com/license/free Copyright 2025 Fonticons, Inc.--><path
       d="m 104.89248,87.447942 c 0.76536,-1.537621 3.40073,-3.563738 4.97432,-2.780478 1.61855,0.805637 1.54589,4.107345 0.78054,5.644967 l -1.48373,2.980831 5.34196,9.306688 c 0.26811,0.46444 0.2826,1.03263 0.0431,1.5137 l -1.26888,2.54923 c -0.24394,0.49008 -0.89732,0.5968 -1.28882,0.2112 l -6.40802,-6.38726 -1.79031,3.5968 1.62291,3.23128 c 0.11271,0.22439 0.1132,0.49391 0.001,0.7187 l -0.93991,1.88832 c -0.17456,0.35069 -0.59655,0.48845 -0.94274,0.31613 -0.0584,-0.0291 -0.11244,-0.0671 -0.16416,-0.10975 l -4.245124,-3.88015 -5.655014,-1.04768 c -0.06739,-0.0114 -0.128083,-0.0357 -0.186529,-0.0648 -0.350688,-0.17456 -0.488456,-0.59656 -0.316141,-0.94275 l 0.93991,-1.88831 c 0.111893,-0.2248 0.327215,-0.3869 0.574192,-0.43225 l 3.556458,-0.65324 1.790311,-3.596785 -8.959233,-1.261831 c -0.543667,-0.07988 -0.852422,-0.665518 -0.60849,-1.155585 l 1.268886,-2.549232 c 0.239454,-0.48107 0.701525,-0.812053 1.233705,-0.878151 l 10.645749,-1.348771 z"
       id="path1824"
       style="stroke-width:0.264583;fill:#00a7ff;fill-opacity:1" /><!--!Font Awesome Free 6.7.2 by @fontawesome - https://fontawesome.com License - https://fontawesome.com/license/free Copyright 2025 Fonticons, Inc.--><path
       d="m 69.217728,72.718723 1.84238,0.366155 c 0.45914,0.09299 0.92992,-0.05229 1.26119,-0.383593 l 0.89505,-0.895038 c 0.67418,-0.674185 1.80751,-0.488204 2.23178,0.36034 l 0.54052,1.075211 c 0.27897,0.557944 0.84854,0.912476 1.47623,0.912476 0.88341,0 1.51692,-0.848544 1.26119,-1.697088 l -0.34871,-1.156575 c -0.26736,-0.895044 0.40102,-1.795896 1.33674,-1.795896 h 0.13368 c 0.7788,0 1.50529,-0.389402 1.93538,-1.034526 l 0.62187,-0.935722 c 0.32547,-0.494019 0.30804,-1.139143 -0.0465,-1.609909 l -0.93571,-1.249569 c -0.59863,-0.796241 -0.19179,-1.947001 0.7788,-2.191106 l 0.98803,-0.249914 c 0.4359,-0.110426 0.79043,-0.418457 0.95897,-0.83692 l 0.95316,-2.377087 c -1.25538,-0.424272 -2.60375,-0.662562 -4.01024,-0.662562 -6.67793,0 -12.08886,5.410922 -12.08886,12.088853 0,0.778796 0.0756,1.540167 0.21505,2.27247 z m 23.6953,0.267352 c -0.17435,-0.01745 -0.34871,-0.0058 -0.52307,0.04649 l -0.91829,0.255722 c -0.3894,0.110433 -0.80205,-0.0523 -1.01709,-0.389395 l -0.11624,-0.180173 c -0.34872,-0.546321 -0.95315,-0.877605 -1.60409,-0.877605 -0.65094,0 -1.25539,0.331284 -1.6041,0.877605 l -0.35453,0.552136 c -0.0814,0.127865 -0.19761,0.238291 -0.33128,0.308031 l -2.09812,1.174014 c -1.05196,0.587006 -1.48204,1.883075 -0.98803,2.981533 l 0.31966,0.720679 c 0.49983,1.115896 1.78427,1.656409 2.93504,1.226322 l 0.15111,-0.05809 c 0.58119,-0.215043 1.23794,-0.127864 1.73777,0.23829 l 0.0872,0.06394 c 2.16205,-1.714526 3.72546,-4.149731 4.32409,-6.945282 z m -26.70008,-2.539822 a 14.878588,14.878588 0 1 1 29.75717,0 14.878588,14.878588 0 1 1 -29.75717,0 z m 8.39826,5.352806 c -0.12205,0.499827 0.18018,1.005463 0.67419,1.127513 l 1.85982,0.464957 c 0.49983,0.122049 1.00547,-0.180167 1.12752,-0.674186 0.12205,-0.494012 -0.18017,-1.00547 -0.67419,-1.127519 l -1.85982,-0.464957 c -0.49983,-0.12205 -1.00547,0.180173 -1.12752,0.674192 z m 5.34699,-1.162396 c -0.12205,0.499834 0.18018,1.00547 0.67419,1.127519 0.49402,0.122049 1.00547,-0.180167 1.12752,-0.674186 l 0.46496,-1.859822 c 0.12204,-0.499827 -0.18018,-1.00547 -0.67419,-1.127519 -0.49402,-0.12205 -1.00547,0.180173 -1.12752,0.674185 z m 6.20135,-12.460811 c -0.45914,-0.232482 -1.01709,-0.0407 -1.24957,0.418457 l -0.92991,1.859822 c -0.23248,0.459149 -0.0407,1.017093 0.41846,1.249569 0.45915,0.232482 1.01709,0.0407 1.24957,-0.418457 l 0.92991,-1.859822 c 0.23248,-0.459149 0.0407,-1.017094 -0.41846,-1.249569 z"
       id="path1833"
       style="stroke-width:0.264583;fill:#72b7e0;fill-opacity:1" /><!--!Font Awesome Free 6.7.2 by @fontawesome - https://fontawesome.com License - https://fontawesome.com/license/free Copyright 2025 Fonticons, Inc.--><path
       d="m 104.21979,35.593484 c 1.65201,0 2.99393,1.341922 2.99393,2.993929 v 21.385209 c 0,1.652006 -1.34192,2.993933 -2.99393,2.993933 -1.54508,0 -2.8175,-1.170845 -2.97789,-2.678499 -0.27801,0.07485 -0.57205,0.112273 -0.87145,0.112273 -1.887231,0 -3.421612,-1.534393 -3.421612,-3.421636 0,-0.395623 0.0695,-0.780559 0.19247,-1.133415 -1.614588,-0.609479 -2.758688,-2.1706 -2.758688,-3.999035 0,-1.705471 0.99975,-3.18105 2.448598,-3.865377 -0.465127,-0.582747 -0.737788,-1.320537 -0.737788,-2.122482 0,-1.641314 1.154798,-3.009968 2.694529,-3.346785 -0.0855,-0.294047 -0.12831,-0.609478 -0.12831,-0.930257 0,-1.598544 1.101324,-2.945812 2.582251,-3.320054 0.16039,-1.496964 1.43281,-2.667804 2.97789,-2.667804 z m 7.69868,0 c 1.54508,0 2.81215,1.17084 2.97789,2.667804 1.48627,0.374242 2.58226,1.716164 2.58226,3.320054 0,0.320779 -0.0428,0.63621 -0.12831,0.930257 1.53973,0.331471 2.69454,1.705471 2.69454,3.346785 0,0.801945 -0.27267,1.539735 -0.73779,2.122482 1.44885,0.684327 2.4486,2.159906 2.4486,3.865377 0,1.828435 -1.14411,3.389556 -2.75869,3.999035 0.12297,0.352856 0.19247,0.737792 0.19247,1.133415 0,1.887243 -1.53439,3.421636 -3.42164,3.421636 -0.29939,0 -0.59343,-0.03744 -0.87144,-0.112273 -0.16039,1.507654 -1.43281,2.678499 -2.97789,2.678499 -1.65201,0 -2.99393,-1.341927 -2.99393,-2.993933 V 38.587413 c 0,-1.652007 1.34192,-2.993929 2.99393,-2.993929 z"
       id="path1842"
       style="stroke-width:0.264583;fill:#e0c372;fill-opacity:1" /><g
       style="fill:#4f4f4f;stroke-width:5.57176;fill-opacity:1"
       id="g1860"
       transform="matrix(1.5828793,0,0,1.5828793,114.54657,58.191827)"><path
         d="M 12.504,0 C 12.349,0 12.189,0.008 12.024,0.021 7.798,0.354 8.919,4.828 8.854,6.319 8.778,7.411 8.554,8.272 7.804,9.339 6.919,10.39 5.677,12.089 5.088,13.86 4.81,14.692 4.678,15.544 4.801,16.349 a 0.424,0.424 0 0 0 -0.11,0.135 c -0.26,0.268 -0.45,0.6 -0.663,0.839 -0.199,0.199 -0.485,0.267 -0.797,0.4 -0.313,0.136 -0.658,0.269 -0.864,0.68 -0.09,0.189 -0.136,0.394 -0.132,0.602 0,0.199 0.027,0.4 0.055,0.536 0.058,0.399 0.116,0.728 0.04,0.97 -0.249,0.68 -0.28,1.145 -0.106,1.484 0.174,0.334 0.535,0.47 0.94,0.601 0.81,0.2 1.91,0.135 2.774,0.6 0.926,0.466 1.866,0.67 2.616,0.47 0.526,-0.116 0.97,-0.464 1.208,-0.946 0.587,-0.003 1.23,-0.269 2.26,-0.334 0.699,-0.058 1.574,0.267 2.577,0.2 0.025,0.134 0.063,0.198 0.114,0.333 l 0.003,0.003 c 0.391,0.778 1.113,1.132 1.884,1.071 0.771,-0.06 1.592,-0.536 2.257,-1.306 0.631,-0.765 1.683,-1.084 2.378,-1.503 0.348,-0.199 0.629,-0.469 0.649,-0.853 0.023,-0.4 -0.2,-0.811 -0.714,-1.376 v -0.097 l -0.003,-0.003 c -0.17,-0.2 -0.25,-0.535 -0.338,-0.926 -0.085,-0.401 -0.182,-0.786 -0.492,-1.046 h -0.003 c -0.059,-0.054 -0.123,-0.067 -0.188,-0.135 a 0.357,0.357 0 0 0 -0.19,-0.064 C 20.387,15.406 20.22,14.134 19.783,12.99 19.25,11.58 18.318,10.352 17.608,9.507 16.812,8.502 16.032,7.55 16.048,6.139 16.074,3.987 16.284,0.006 12.504,0 Z m 0.529,3.405 h 0.013 c 0.213,0 0.396,0.062 0.584,0.198 0.19,0.135 0.33,0.332 0.438,0.533 0.105,0.259 0.158,0.459 0.166,0.724 0,-0.02 0.006,-0.04 0.006,-0.06 V 4.905 A 0.086,0.086 0 0 1 14.236,4.884 L 14.232,4.86 A 1.807,1.807 0 0 1 14.082,5.566 0.953,0.953 0 0 1 13.869,5.901 0.71,0.71 0 0 0 13.781,5.859 C 13.677,5.814 13.583,5.795 13.497,5.726 A 1.312,1.312 0 0 0 13.277,5.66 C 13.327,5.6 13.423,5.527 13.46,5.462 13.513,5.334 13.542,5.198 13.548,5.06 V 5.04 A 1.21,1.21 0 0 0 13.487,4.64 C 13.442,4.506 13.386,4.44 13.304,4.307 13.22,4.241 13.137,4.175 13.037,4.175 h -0.016 c -0.093,0 -0.176,0.03 -0.262,0.132 a 0.8,0.8 0 0 0 -0.205,0.334 1.18,1.18 0 0 0 -0.09,0.4 V 5.06 c 0.002,0.089 0.008,0.179 0.02,0.267 C 12.291,5.26 12.046,5.192 11.877,5.125 a 1.635,1.635 0 0 1 -0.018,-0.2 v -0.02 a 1.772,1.772 0 0 1 0.15,-0.768 1.08,1.08 0 0 1 0.43,-0.533 0.985,0.985 0 0 1 0.594,-0.2 z m -2.962,0.059 h 0.036 c 0.142,0 0.27,0.048 0.399,0.135 0.146,0.129 0.264,0.288 0.344,0.465 0.09,0.199 0.14,0.4 0.153,0.667 v 0.004 c 0.007,0.134 0.006,0.2 -0.002,0.266 v 0.08 c -0.03,0.007 -0.056,0.018 -0.083,0.024 -0.152,0.055 -0.274,0.135 -0.393,0.2 0.012,-0.09 0.013,-0.18 0.003,-0.267 V 5.023 C 10.516,4.89 10.488,4.823 10.446,4.69 A 0.613,0.613 0 0 0 10.28,4.423 0.248,0.248 0 0 0 10.097,4.359 H 10.076 C 10.005,4.365 9.946,4.399 9.89,4.491 a 0.552,0.552 0 0 0 -0.12,0.27 0.944,0.944 0 0 0 -0.023,0.33 v 0.015 c 0.012,0.135 0.037,0.2 0.08,0.334 0.046,0.134 0.098,0.2 0.166,0.268 0.01,0.009 0.02,0.018 0.034,0.024 C 9.957,5.789 9.91,5.802 9.851,5.868 A 0.304,0.304 0 0 1 9.72,5.936 2.62,2.62 0 0 1 9.445,5.534 1.772,1.772 0 0 1 9.29,4.867 1.759,1.759 0 0 1 9.37,4.199 1.43,1.43 0 0 1 9.653,3.664 c 0.128,-0.133 0.26,-0.2 0.418,-0.2 z m 1.37,1.706 c 0.332,0 0.733,0.065 1.216,0.399 0.293,0.2 0.523,0.269 1.052,0.468 h 0.003 c 0.255,0.136 0.405,0.266 0.478,0.399 V 6.305 a 0.571,0.571 0 0 1 0.016,0.47 C 14.083,7.085 13.69,7.418 13.143,7.617 V 7.619 C 12.875,7.754 12.642,7.952 12.368,8.084 12.092,8.219 11.78,8.376 11.356,8.351 A 1.139,1.139 0 0 1 10.908,8.284 3.566,3.566 0 0 1 10.586,8.086 C 10.391,7.951 10.223,7.754 9.974,7.621 V 7.616 H 9.969 C 9.569,7.37 9.353,7.104 9.283,6.906 9.213,6.638 9.278,6.436 9.476,6.306 9.7,6.171 9.856,6.035 9.959,5.97 10.063,5.896 10.102,5.868 10.135,5.839 h 0.002 V 5.836 C 10.306,5.634 10.573,5.366 10.976,5.235 11.115,5.199 11.27,5.17 11.442,5.17 Z m 2.8,2.142 c 0.358,1.417 1.196,3.475 1.735,4.473 0.286,0.534 0.855,1.659 1.102,3.024 0.156,-0.005 0.33,0.018 0.513,0.064 0.646,-1.671 -0.546,-3.467 -1.089,-3.966 -0.22,-0.2 -0.232,-0.335 -0.123,-0.335 0.59,0.534 1.365,1.572 1.646,2.757 0.13,0.535 0.16,1.104 0.021,1.67 0.067,0.028 0.135,0.06 0.205,0.067 1.032,0.534 1.413,0.938 1.23,1.537 V 16.56 c -0.06,-0.003 -0.12,0 -0.18,0 h -0.016 c 0.151,-0.467 -0.182,-0.825 -1.065,-1.224 -0.915,-0.4 -1.646,-0.336 -1.77,0.465 -0.008,0.043 -0.013,0.066 -0.018,0.135 -0.068,0.023 -0.139,0.053 -0.209,0.064 -0.43,0.268 -0.662,0.669 -0.793,1.187 -0.13,0.533 -0.17,1.156 -0.205,1.869 v 0.003 c -0.02,0.334 -0.17,0.838 -0.319,1.35 -1.5,1.072 -3.58,1.538 -5.348,0.334 A 2.645,2.645 0 0 0 9.156,20.21 1.45,1.45 0 0 0 8.881,19.877 c 0.182,0 0.338,-0.03 0.465,-0.067 A 0.615,0.615 0 0 0 9.66,19.476 C 9.768,19.209 9.66,18.779 9.315,18.313 8.97,17.846 8.384,17.318 7.527,16.792 6.897,16.392 6.541,15.922 6.377,15.396 6.212,14.862 6.234,14.311 6.362,13.751 c 0.245,-1.07 0.873,-2.11 1.274,-2.763 0.107,-0.065 0.037,0.135 -0.408,0.974 -0.396,0.751 -1.14,2.497 -0.122,3.854 A 8.123,8.123 0 0 1 7.753,12.94 c 0.564,-1.278 1.743,-3.504 1.836,-5.268 0.048,0.036 0.217,0.135 0.289,0.202 0.218,0.133 0.38,0.333 0.59,0.465 0.21,0.201 0.477,0.335 0.876,0.335 0.039,0.003 0.075,0.006 0.11,0.006 0.412,0 0.73,-0.134 0.997,-0.268 0.29,-0.134 0.52,-0.334 0.74,-0.4 h 0.005 c 0.467,-0.135 0.835,-0.402 1.044,-0.7 z m 2.185,8.958 c 0.037,0.6 0.343,1.245 0.882,1.377 0.588,0.134 1.434,-0.333 1.791,-0.765 l 0.211,-0.01 c 0.315,-0.007 0.577,0.01 0.847,0.268 l 0.003,0.003 c 0.208,0.199 0.305,0.53 0.391,0.876 0.085,0.4 0.154,0.78 0.409,1.066 0.486,0.527 0.645,0.906 0.636,1.14 l 0.003,-0.007 v 0.018 l -0.003,-0.012 c -0.015,0.262 -0.185,0.396 -0.498,0.595 -0.63,0.401 -1.746,0.712 -2.457,1.57 -0.618,0.737 -1.37,1.14 -2.036,1.191 -0.664,0.053 -1.237,-0.2 -1.574,-0.898 l -0.005,-0.003 c -0.21,-0.4 -0.12,-1.025 0.056,-1.69 0.176,-0.668 0.428,-1.344 0.463,-1.897 0.037,-0.714 0.076,-1.335 0.195,-1.814 0.12,-0.465 0.308,-0.797 0.641,-0.984 l 0.045,-0.022 z M 5.612,16.319 h 0.01 c 0.053,0 0.105,0.005 0.157,0.014 0.376,0.055 0.706,0.333 1.023,0.752 l 0.91,1.664 0.003,0.003 c 0.243,0.533 0.754,1.064 1.189,1.637 0.434,0.598 0.77,1.131 0.729,1.57 v 0.006 c -0.057,0.744 -0.48,1.148 -1.125,1.294 -0.645,0.135 -1.52,0.002 -2.395,-0.464 -0.968,-0.536 -2.118,-0.469 -2.857,-0.602 -0.369,-0.066 -0.61,-0.2 -0.723,-0.4 -0.11,-0.2 -0.113,-0.602 0.123,-1.23 v -0.004 l 0.002,-0.003 c 0.117,-0.334 0.03,-0.752 -0.027,-1.118 -0.055,-0.401 -0.083,-0.71 0.043,-0.94 0.16,-0.334 0.396,-0.4 0.69,-0.533 0.294,-0.135 0.64,-0.202 0.915,-0.47 h 0.002 v -0.002 c 0.256,-0.268 0.445,-0.601 0.668,-0.838 0.19,-0.201 0.38,-0.336 0.663,-0.336 z M 12.771,7.245 C 12.336,7.446 11.826,7.78 11.283,7.78 10.741,7.78 10.313,7.513 10.003,7.314 9.849,7.18 9.723,7.046 9.63,6.979 9.466,6.845 9.486,6.646 9.556,6.646 c 0.109,0.016 0.129,0.134 0.199,0.2 0.096,0.066 0.215,0.2 0.36,0.333 0.292,0.2 0.68,0.467 1.167,0.467 0.485,0 1.053,-0.267 1.398,-0.466 0.195,-0.135 0.445,-0.334 0.648,-0.467 0.156,-0.136 0.149,-0.267 0.279,-0.267 0.128,0.016 0.034,0.134 -0.147,0.332 A 8.097,8.097 0 0 1 12.77,7.246 Z M 11.689,5.662 V 5.64 c -0.006,-0.02 0.013,-0.042 0.029,-0.05 0.074,-0.043 0.18,-0.027 0.26,0.004 0.063,0 0.16,0.067 0.15,0.135 -0.006,0.049 -0.085,0.066 -0.135,0.066 -0.055,0 -0.092,-0.043 -0.141,-0.068 C 11.8,5.709 11.706,5.719 11.689,5.662 Z m -0.551,0 c -0.02,0.058 -0.113,0.049 -0.166,0.066 -0.047,0.025 -0.086,0.068 -0.14,0.068 -0.05,0 -0.13,-0.02 -0.136,-0.068 -0.01,-0.066 0.088,-0.133 0.15,-0.133 0.08,-0.031 0.184,-0.047 0.259,-0.005 0.019,0.009 0.036,0.03 0.03,0.05 v 0.02 h 0.003 z"
         id="path1851"
         style="stroke-width:5.57176;fill:#4f4f4f;fill-opacity:1" /></g><g
       style="fill:#f50303;stroke-width:6.89595;fill-opacity:1"
       id="g1874"
       transform="matrix(1.9183966,0,0,1.9183966,131.22139,26.977967)"><path
         d="M 15,5.6 10.4,1 A 3.4,3.4 0 0 0 5.78,0.86 l 1.88,1.88 a 1.25,1.25 0 0 1 1.67,1.2 V 4 A 1.23,1.23 0 0 1 9.25,4.38 l 2.45,2.4 A 1.17,1.17 0 0 1 12.07,6.7 1.3,1.3 0 1 1 10.77,8 V 8 A 1.17,1.17 0 0 1 10.85,7.63 L 8.6,5.38 v 5.23 a 1.28,1.28 0 0 1 0.73,1.15 1.3,1.3 0 0 1 -2.6,0 1.27,1.27 0 0 1 0.67,-1.11 V 5.07 A 1.27,1.27 0 0 1 6.73,4 1.17,1.17 0 0 1 6.81,3.63 L 4.91,1.73 1,5.6 a 3.38,3.38 0 0 0 0,4.79 v 0 L 5.6,15 a 3.38,3.38 0 0 0 4.79,0 v 0 L 15,10.4 a 3.38,3.38 0 0 0 0,-4.79 z"
         id="path1862"
         style="stroke-width:6.89595;fill:#f50303;fill-opacity:1" /></g><g
       style="fill:#0306f5;stroke-width:7.1032;fill-opacity:1"
       id="g1885"
       transform="matrix(1.8624238,0,0,1.8624238,168.98911,30.911484)"><path
         fill="#000000"
         fill-rule="evenodd"
         d="M 5.374,15 C 5.039,15 4.714,14.847 4.5,14.569 L 1.246,10.397 A 1.15,1.15 0 0 1 1.032,9.419 L 2.197,4.212 C 2.271,3.867 2.495,3.589 2.802,3.436 L 7.517,1.116 C 7.667,1.038 7.834,1 8.002,1 8.17,1 8.337,1.038 8.487,1.115 L 13.2,3.426 c 0.308,0.153 0.532,0.432 0.606,0.777 l 1.165,5.207 c 0.074,0.345 0,0.7 -0.214,0.978 L 11.5,14.566 C 11.286,14.834 10.96,15 10.625,15 h -5.25 z m 7.718,-5.835 0.031,0.008 a 0.308,0.308 0 0 1 0.26,0.371 0.306,0.306 0 0 1 -0.396,0.223 H 12.983 L 12.98,9.766 12.977,9.765 12.947,9.758 12.897,9.748 A 2.548,2.548 0 0 1 12.623,9.642 2.87,2.87 0 0 0 12.09,9.486 0.242,0.242 0 0 0 11.919,9.549 4.76,4.76 0 0 0 11.788,9.526 3.972,3.972 0 0 1 10.024,11.738 c 0.015,0.042 0.032,0.083 0.051,0.123 a 0.239,0.239 0 0 0 -0.023,0.18 c 0.074,0.17 0.165,0.332 0.271,0.484 0.06,0.078 0.114,0.16 0.164,0.244 l 0.028,0.057 0.012,0.025 a 0.306,0.306 0 0 1 -0.381,0.44 0.307,0.307 0 0 1 -0.172,-0.18 2.608,2.608 0 0 0 -0.01,-0.02 L 9.936,13.033 A 2.545,2.545 0 0 1 9.847,12.753 2.835,2.835 0 0 0 9.637,12.241 0.242,0.242 0 0 0 9.481,12.146 5.926,5.926 0 0 1 9.451,12.093 L 9.416,12.029 A 3.97,3.97 0 0 1 6.592,12.022 l -0.069,0.125 a 0.249,0.249 0 0 0 -0.132,0.064 c -0.104,0.17 -0.184,0.355 -0.237,0.548 a 2.525,2.525 0 0 1 -0.088,0.28 l -0.025,0.05 -0.013,0.027 v 0.001 A 0.307,0.307 0 1 1 5.475,12.856 l 0.014,-0.03 0.026,-0.052 c 0.05,-0.085 0.104,-0.166 0.164,-0.244 0.108,-0.156 0.2,-0.322 0.277,-0.496 A 0.302,0.302 0 0 0 5.928,11.861 L 5.984,11.728 A 3.972,3.972 0 0 1 4.22,9.532 L 4.086,9.555 A 0.34,0.34 0 0 0 3.91,9.493 2.872,2.872 0 0 0 3.377,9.649 C 3.287,9.689 3.196,9.724 3.103,9.754 L 3.053,9.765 3.023,9.772 H 3.02 L 3.018,9.774 H 3.013 A 0.308,0.308 0 0 1 2.616,9.425 0.306,0.306 0 0 1 2.877,9.18 L 2.881,9.179 H 2.884 L 2.89,9.177 C 2.914,9.171 2.944,9.163 2.966,9.159 3.063,9.146 3.161,9.138 3.259,9.136 3.445,9.123 3.629,9.093 3.808,9.046 A 0.422,0.422 0 0 0 3.939,8.913 L 4.067,8.876 A 3.938,3.938 0 0 1 4.691,6.124 L 4.594,6.037 A 0.338,0.338 0 0 0 4.532,5.861 2.854,2.854 0 0 0 4.077,5.542 2.557,2.557 0 0 1 3.823,5.394 1.129,1.129 0 0 1 3.76,5.344 L 3.756,5.34 A 0.323,0.323 0 0 1 3.68,4.89 0.295,0.295 0 0 1 3.924,4.783 0.365,0.365 0 0 1 4.137,4.863 L 4.159,4.88 C 4.175,4.893 4.193,4.906 4.205,4.917 4.276,4.984 4.344,5.056 4.407,5.13 4.532,5.267 4.67,5.392 4.819,5.502 4.875,5.532 4.94,5.538 5.001,5.52 l 0.11,0.078 A 3.938,3.938 0 0 1 7.663,4.374 L 7.67,4.245 A 0.332,0.332 0 0 0 7.77,4.088 2.844,2.844 0 0 0 7.736,3.534 2.555,2.555 0 0 1 7.694,3.244 V 3.191 3.166 3.162 3.158 A 0.306,0.306 0 0 1 8,2.82 0.308,0.308 0 0 1 8.306,3.157 V 3.244 A 2.53,2.53 0 0 1 8.265,3.534 2.85,2.85 0 0 0 8.23,4.087 0.242,0.242 0 0 0 8.33,4.24 v 0.007 l 0.007,0.13 c 0.967,0.087 1.87,0.522 2.54,1.223 l 0.116,-0.083 a 0.34,0.34 0 0 0 0.186,-0.02 c 0.149,-0.11 0.287,-0.235 0.412,-0.373 a 2.53,2.53 0 0 1 0.202,-0.213 l 0.051,-0.04 0.017,-0.014 a 0.308,0.308 0 0 1 0.472,0.388 0.307,0.307 0 0 1 -0.09,0.09 c -0.008,0.005 -0.017,0.012 -0.025,0.02 l -0.043,0.033 a 2.549,2.549 0 0 1 -0.254,0.148 2.865,2.865 0 0 0 -0.455,0.32 0.24,0.24 0 0 0 -0.058,0.172 4.458,4.458 0 0 1 -0.05,0.044 L 11.3,6.125 c 0.542,0.806 0.769,1.783 0.637,2.745 l 0.123,0.036 c 0.031,0.056 0.077,0.101 0.132,0.132 0.18,0.048 0.364,0.078 0.55,0.09 0.097,0.003 0.195,0.01 0.292,0.024 z M 10.217,6.065 8.909,6.99 8.905,6.988 A 0.27,0.27 0 0 1 8.475,6.783 V 6.782 L 8.384,5.184 a 3.183,3.183 0 0 1 1.833,0.882 z M 7.754,7.818 H 8.246 L 8.552,8.199 8.442,8.675 8,8.886 7.557,8.673 7.447,8.198 7.754,7.817 Z M 7.29,5.24 C 7.397,5.216 7.506,5.197 7.616,5.184 l -0.09,1.6 -0.008,0.004 A 0.268,0.268 0 0 1 7.225,7.044 0.27,0.27 0 0 1 7.09,6.994 L 7.088,6.995 5.772,6.065 C 6.191,5.655 6.717,5.369 7.29,5.24 Z M 5.296,6.663 6.497,7.734 6.496,7.741 A 0.269,0.269 0 0 1 6.39,8.203 L 6.389,8.208 4.849,8.651 A 3.134,3.134 0 0 1 5.296,6.663 Z M 6.904,9.509 6.292,10.983 A 3.16,3.16 0 0 1 5.022,9.397 L 6.6,9.13 6.603,9.133 A 0.265,0.265 0 0 1 6.783,9.162 0.27,0.27 0 0 1 6.9,9.503 Z m 1.806,1.896 c -0.572,0.13 -1.17,0.1 -1.726,-0.088 l 0.777,-1.4 H 7.762 A 0.27,0.27 0 0 1 8.237,9.916 h 0.006 l 0.779,1.402 A 3.286,3.286 0 0 1 8.71,11.405 Z M 9.714,10.989 9.096,9.5 9.097,9.497 A 0.269,0.269 0 0 1 9.393,9.127 L 9.396,9.123 10.989,9.392 A 3.147,3.147 0 0 1 9.714,10.989 Z M 11.156,8.646 9.61,8.201 9.608,8.195 A 0.27,0.27 0 0 1 9.423,7.852 0.27,0.27 0 0 1 9.503,7.732 L 9.5,7.73 10.695,6.663 c 0.366,0.594 0.527,1.29 0.46,1.983 z"
         clip-rule="evenodd"
         id="path1876"
         style="stroke-width:31.0222;fill:#0306f5;fill-opacity:1" /></g><g
       style="fill:none;stroke:#cf2828;stroke-width:3.96063998;stroke-dasharray:none;stroke-opacity:1"
       id="g1911"
       transform="matrix(0.5049159,0,0,0.5050219,154.16634,62.188084)"><path
         d="m 14,39.87 10.59,10.64 c 0,0 33,-14 31.23,-42.29 0,0 -26.18,-3.94 -41.82,31.65 z"
         id="path1887"
         style="stroke-width:3.96063998;stroke-dasharray:none;stroke:#cf2828;stroke-opacity:1" /><path
         d="m 44.69,9.09 a 12.3,12.3 0 0 0 3.48,6.73 12.31,12.31 0 0 0 7,3.52"
         id="path1889"
         style="stroke-width:3.96063998;stroke-dasharray:none;stroke:#cf2828;stroke-opacity:1" /><circle
         cx="39.459999"
         cy="24.559999"
         r="6.1999998"
         id="circle1891"
         style="stroke-width:3.96063998;stroke-dasharray:none;stroke:#cf2828;stroke-opacity:1" /><path
         d="M 14.89,37.82 9.59,38.5 A 0.27,0.27 0 0 1 9.31,38.13 l 3.93,-9 a 2.65,2.65 0 0 1 1.88,-1.53 l 6.59,-1.38"
         id="path1893"
         style="stroke-width:3.96063998;stroke-dasharray:none;stroke:#cf2828;stroke-opacity:1" /><path
         d="m 26.55,49.4 -0.69,5.3 a 0.27,0.27 0 0 0 0.37,0.28 l 9,-3.92 a 2.69,2.69 0 0 0 1.53,-1.89 l 1.38,-6.59"
         id="path1895"
         style="stroke-width:3.96063998;stroke-dasharray:none;stroke:#cf2828;stroke-opacity:1" /><path
         d="m 22.21,48.13 c -2.37,7.41 -14.1,7.78 -14.1,7.78 0,0 -0.11,-11.4 7.65,-14.24"
         id="path1897"
         style="stroke-width:3.96063998;stroke-dasharray:none;stroke:#cf2828;stroke-opacity:1" /></g><g
       style="fill:#d93e3e;stroke-width:6.69566;stroke:none;stroke-opacity:1;fill-opacity:1"
       id="g3010"
       transform="matrix(0.68722826,0,0,0.68722826,199.52097,55.177883)"><path
         id="_24.TV"
         data-name="24.TV"
         d="M 46,37 H 2 A 1,1 0 0 1 1,36 V 8 A 1,1 0 0 1 2,7 h 44 a 1,1 0 0 1 1,1 v 28 a 1,1 0 0 1 -1,1 z M 45,9 H 3 v 26 h 42 z m -24,7 a 0.975,0.975 0 0 1 0.563,0.2 l 7.771,4.872 a 0.974,0.974 0 0 1 0.261,1.715 l -7.974,4.981 A 0.982,0.982 0 0 1 21,28 1,1 0 0 1 20,27 V 17 a 1,1 0 0 1 1,-1 z m -6,23 h 18 a 1,1 0 0 1 0,2 H 15 a 1,1 0 0 1 0,-2 z"
         transform="translate(-1,-7)"
         fill-rule="evenodd"
         style="stroke-width:21.2491;stroke:none;stroke-opacity:1;fill:#d93e3e;fill-opacity:1" /></g><g
       style="fill:#4c84a7;stroke-width:7.47034;fill-opacity:1"
       id="g4473"
       transform="matrix(0.56668522,0,0,0.56668522,183.00408,79.851206)"><path
         d="m 39,2.03125 c -0.261719,0.03125 -0.496094,0.167969 -0.65625,0.375 l -3,3.8125 C 34.78125,5.488281 33.898438,5 32.90625,5 h -2.8125 C 28.394531,5 27,6.394531 27,8.09375 v 7.8125 C 27,17.605469 28.394531,19 30.09375,19 h 2.8125 c 0.992188,0 1.875,-0.488281 2.4375,-1.21875 l 3,3.8125 c 0.292969,0.367188 0.804688,0.472656 1.21875,0.25 l 9.90625,-5.40625 c 0.414063,-0.222656 0.605469,-0.707031 0.460938,-1.152344 C 49.78125,14.835938 49.339844,14.5625 48.875,14.625 48.753906,14.64453 48.636719,14.6875 48.53125,14.75 L 39.375,19.78125 36,15.5 V 8.53125 L 39.375,4.25 l 9.15625,5 c 0.304688,0.207031 0.699219,0.222656 1.019531,0.042969 C 49.871094,9.113281 50.0625,8.769531 50.042969,8.402344 50.027344,8.035156 49.804688,7.710938 49.46875,7.5625 L 39.5625,2.15625 C 39.390625,2.058594 39.195313,2.015625 39,2.03125 Z M 9,3 c -4.960937,0 -9,4.039063 -9,9 0,4.960938 4.039063,9 9,9 4.960938,0 9,-4.039062 9,-9 C 18,7.039063 13.960938,3 9,3 Z m 9.6875,4 C 19.480469,8.519531 20,10.171875 20,12 c 0,1.828125 -0.519531,4.480469 -1.3125,6 h 6.28125 c -0.07422,-0.347656 -0.0625,-1.632812 -0.0625,-2 V 8 c 0,-0.367187 -0.01172,-0.652344 0.0625,-1 z M 9,7.34375 c 2.558594,0 4.65625,2.097656 4.65625,4.65625 0,2.558594 -2.097656,4.65625 -4.65625,4.65625 C 6.441406,16.65625 4.34375,14.558594 4.34375,12 4.34375,9.441406 6.441406,7.34375 9,7.34375 Z M 17.8125,18.5625 C 15.804688,21.242188 12.601563,23 9,23 7.773438,23 6.601563,22.777344 5.5,22.40625 l 8.78125,16.5625 h 15.0625 z M 6.875,41 C 5.253906,41 4,42.316406 4,44 v 5 c 0,0.582031 0.417969,1 1,1 h 34 c 0.582031,0 1,-0.417969 1,-1 v -5 c 0,-1.683594 -1.253906,-3 -2.875,-3 z"
         id="path4464"
         style="stroke-width:7.47034;fill:#4c84a7;fill-opacity:1" /></g><g
       id="g5931"
       transform="matrix(0.07132022,0,0,0.07132022,200.01557,108.18547)"
       style="stroke-width:5.79655;fill:#36b643;fill-opacity:1">
	<path
   class="st0"
   d="m 422.969,193.281 c 2.313,-7.922 3.594,-16.313 3.594,-24.969 0,-42.469 -29.375,-78.063 -68.875,-87.844 C 346.813,34.406 305.438,0 256,0 206.562,0 165.187,34.406 154.25,80.469 c -39.438,9.781 -68.813,45.375 -68.813,87.844 0,8.656 1.281,17.047 3.594,24.969 -24.718,19.187 -40.625,49.031 -40.625,82.718 0,57.75 46.781,104.563 104.563,104.563 14.625,0 28.563,-2.969 41.188,-8.406 1.922,1.594 3.844,3.125 5.844,4.563 V 512 h 112 V 376.641 c 2,-1.438 3.922,-2.891 5.75,-4.484 12.719,5.438 26.656,8.406 41.281,8.406 57.781,0 104.563,-46.813 104.563,-104.563 -0.001,-33.687 -15.907,-63.531 -40.626,-82.719 z M 280,480 h -48 v -88.156 c 7.688,2 15.688,3.031 24,3.031 8.312,0 16.313,-1.031 24,-3.031 z m 79.031,-131.437 c -9.906,0 -19.5,-1.922 -28.625,-5.844 l -18.156,-7.844 -0.25,0.25 -14.875,12.625 c -5.203,4.328 -10.969,7.844 -17.125,10.328 -7.594,3.125 -15.688,4.797 -24,4.797 -8.312,0 -16.406,-1.672 -24,-4.797 -6.156,-2.484 -11.922,-6 -17.125,-10.328 L 200,335.125 l -0.25,-0.25 -18.156,7.844 c -9.125,3.922 -18.719,5.844 -28.625,5.844 -40,0 -72.563,-32.563 -72.563,-72.563 0,-22.563 10.234,-43.438 28.234,-57.359 l 17.109,-13.281 -6,-20.891 c -1.5,-5.438 -2.313,-10.875 -2.313,-16.156 0,-26.953 18.313,-50.313 44.484,-56.719 l 18.953,-4.719 4.563,-19.031 C 193.188,54.969 222.25,32 256,32 c 33.75,0 62.813,22.969 70.563,55.844 l 4.469,19.031 19.047,4.719 c 26.172,6.406 44.484,29.766 44.484,56.719 0,5.281 -0.813,10.719 -2.313,16.156 l -6,20.891 17.109,13.281 c 18,13.922 28.234,34.797 28.234,57.359 10e-4,40 -32.562,72.563 -72.562,72.563 z"
   id="path5929"
   style="stroke-width:5.79655;fill:#36b643;fill-opacity:1" />
</g><g
       id="g7405"
       transform="matrix(1.5635632,0,0,1.5635632,219.96504,75.83023)"
       style="stroke-width:5.6406"><path
         d="m 16,6 3,4 h 2 c 1.11,0 2,0.89 2,2 v 3 h -2 c 0,1.66 -1.34,3 -3,3 -1.66,0 -3,-1.34 -3,-3 H 9 C 9,16.66 7.66,18 6,18 4.34,18 3,16.66 3,15 H 1 V 12 C 1,10.89 1.89,10 3,10 L 6,6 H 16 M 10.5,7.5 H 6.75 L 4.86,10 H 10.5 V 7.5 m 1.5,0 V 10 h 5.14 L 15.25,7.5 H 12 m -6,6 c -0.83,0 -1.5,0.67 -1.5,1.5 0,0.83 0.67,1.5 1.5,1.5 0.83,0 1.5,-0.67 1.5,-1.5 0,-0.83 -0.67,-1.5 -1.5,-1.5 m 12,0 c -0.83,0 -1.5,0.67 -1.5,1.5 0,0.83 0.67,1.5 1.5,1.5 0.83,0 1.5,-0.67 1.5,-1.5 0,-0.83 -0.67,-1.5 -1.5,-1.5 z"
         id="path7393"
         style="stroke-width:5.6406;fill:#7b1cd0;fill-opacity:1" /><rect
         fill="none"
         width="24"
         height="24"
         id="rect7395"
         x="0"
         y="0"
         style="stroke-width:19.3966" /></g><g
       style="overflow:inherit;fill:#a9c849;stroke-width:7.25901;fill-opacity:1"
       id="g9594"
       transform="matrix(0.5831829,0,0,0.5831829,240.81796,104.98247)"><path
         d="M 21.211,6 C 8.579,6 1,16.133 1,21.2 c 0,5.067 2.526,8.867 7.579,8.867 5.053,0 7.58,1.266 7.58,5.066 0,5.066 3.789,8.866 8.842,8.866 16.422,0 24,-8.866 24,-17.732 C 49,11.067 36.366,6 21.211,6 Z m -3.158,5.067 c 1.744,0 3.158,1.418 3.158,3.166 0,1.75 -1.414,3.167 -3.158,3.167 -1.744,0 -3.158,-1.418 -3.158,-3.167 0,-1.748 1.414,-3.166 3.158,-3.166 z m 10.104,0 c 1.744,0 3.158,1.418 3.158,3.166 0,1.75 -1.414,3.167 -3.158,3.167 C 26.414,17.4 25,15.982 25,14.233 c 0,-1.748 1.414,-3.166 3.157,-3.166 z m 10.106,5.066 c 1.745,0 3.159,1.417 3.159,3.167 0,1.75 -1.414,3.166 -3.159,3.166 -1.744,0 -3.157,-1.417 -3.157,-3.166 -0.001,-1.749 1.413,-3.167 3.157,-3.167 z M 9.211,18.667 c 1.744,0 3.157,1.417 3.157,3.165 0,1.75 -1.414,3.167 -3.157,3.167 -1.743,0 -3.158,-1.418 -3.158,-3.167 0,-1.748 1.414,-3.165 3.158,-3.165 z M 25,31.333 c 2.093,0 3.789,1.7 3.789,3.801 0,2.098 -1.696,3.799 -3.789,3.799 -2.093,0 -3.789,-1.701 -3.789,-3.799 0,-2.101 1.696,-3.801 3.789,-3.801 z"
         id="path9585"
         style="stroke-width:7.25901;fill:#a9c849;fill-opacity:1" /></g><!--!Font Awesome Free 6.7.2 by @fontawesome - https://fontawesome.com License - https://fontawesome.com/license/free Copyright 2025 Fonticons, Inc.--><path
       d="m 215.11368,156.32333 c -1.51977,-1.54045 -1.51977,-4.0424 0,-5.58285 1.51978,-1.54045 3.98036,-1.54045 5.50012,0 l 0.91496,0.93048 0.91499,-0.93048 c 1.51975,-1.54045 3.98034,-1.54045 5.50012,0 1.51977,1.54045 1.51977,4.0424 0,5.58285 l -5.25201,5.3347 c -0.32048,0.32567 -0.73921,0.4859 -1.1631,0.4859 -0.42386,0 -0.84259,-0.16014 -1.16308,-0.4859 z m 20.89945,10.30756 c 0.67718,0.92014 0.48074,2.21245 -0.4394,2.88963 l -6.54431,4.82296 c -1.20962,0.88911 -2.66736,1.36985 -4.17163,1.36985 h -8.29155 -8.27086 c -0.91496,0 -1.65418,-0.73921 -1.65418,-1.65417 v -3.30835 c 0,-0.91496 0.73922,-1.65417 1.65418,-1.65417 h 1.9023 l 2.32103,-1.86094 c 1.17341,-0.94081 2.63116,-1.44741 4.13542,-1.44741 h 4.04755 0.82708 3.30836 c 0.91497,0 1.65416,0.7392 1.65416,1.65417 0,0.91498 -0.73919,1.65418 -1.65416,1.65418 h -3.30836 -0.82708 c -0.45489,0 -0.82708,0.37218 -0.82708,0.82708 0,0.45491 0.37219,0.82709 0.82708,0.82709 h 6.23418 l 6.18764,-4.55932 c 0.92012,-0.67716 2.21245,-0.48074 2.88963,0.4394 z m -19.36416,2.46575 c 0,0 0,0 0,0 h -0.0466 c 0.0161,0 0.031,0 0.0466,0 z"
       id="path11470"
       style="stroke-width:0.264581;fill:#e463d0;fill-opacity:1" /><g
       style="fill:#828282;stroke-width:7.49157;fill-opacity:1"
       id="g12585"
       transform="matrix(0.06008799,0,0,0.06008799,227.27419,130.57448)"><g
         id="g12574"
         style="stroke-width:7.49157;fill:#828282;fill-opacity:1">
	<path
   d="m 370.15,369.011 c 0,-2.68 -1.429,-5.156 -3.75,-6.496 L 277.389,311.121 V 196.243 L 318.788,79.578 c 1.036,-2.921 0.17,-6.178 -2.182,-8.197 L 297.964,55.369 c -0.348,-0.299 -0.727,-0.571 -1.136,-0.808 L 204.071,1.005 c -1.938,-1.119 -4.275,-1.315 -6.37,-0.532 -2.097,0.781 -3.734,2.458 -4.467,4.572 l -46.378,133.886 c -0.273,0.79 -0.413,1.62 -0.413,2.455 v 183.107 l -42.634,24.619 c -2.321,1.34 -3.75,3.816 -3.75,6.496 0,0.025 0.005,0.049 0.005,0.073 v 26.721 c 0,2.68 1.43,5.156 3.751,6.496 l 139.136,80.307 c 1.16,0.67 2.454,1.004 3.749,1.004 1.295,0 2.59,-0.335 3.75,-1.005 l 115.929,-66.931 c 2.319,-1.339 3.748,-3.813 3.75,-6.49 0,10e-4 0.021,-26.757 0.021,-26.772 z M 262.821,192.443 c -0.285,0.806 -0.432,1.654 -0.432,2.508 v 196.486 l -8.209,4.74 0.002,-199.963 42.373,-122.284 6.377,5.478 z M 161.443,142.648 204.435,18.536 283.963,64.453 239.595,192.495 c -0.273,0.79 -0.413,1.62 -0.413,2.456 l -0.002,201.226 -77.737,-44.882 z m -15,199.167 v 13.811 c 0,2.68 1.43,5.155 3.75,6.495 l 92.737,53.542 c 1.16,0.67 2.455,1.005 3.75,1.005 1.295,0 2.59,-0.335 3.75,-1.005 l 23.209,-13.4 c 2.32,-1.34 3.75,-3.815 3.75,-6.495 v -67.325 l 70.259,40.567 -100.949,58.264 -124.14,-71.666 z M 115.064,368.6 239.2,440.263 v 9.458 L 115.064,378.072 Z M 254.2,449.719 v -9.457 l 100.938,-58.257 -0.007,9.441 z"
   id="path12568"
   style="stroke-width:7.49157;fill:#828282;fill-opacity:1" />
	<path
   d="M 272.609,63.586 215.001,30.33 c -1.938,-1.119 -4.276,-1.313 -6.37,-0.532 -2.097,0.782 -3.734,2.458 -4.467,4.573 l -37.378,107.918 c -1.177,3.396 0.223,7.15 3.335,8.948 l 57.588,33.277 c 1.154,0.667 2.449,1.006 3.752,1.006 0.884,0 1.771,-0.156 2.618,-0.472 2.098,-0.781 3.736,-2.458 4.469,-4.572 L 275.946,72.538 c 1.177,-3.399 -0.223,-7.154 -3.337,-8.952 z m -45.261,103.395 -44.362,-25.634 32.38,-93.486 44.378,25.619 z"
   id="path12570"
   style="stroke-width:7.49157;fill:#828282;fill-opacity:1" />
	<path
   d="m 227.245,201.846 -46.361,-26.788 c -3.585,-2.073 -8.173,-0.845 -10.246,2.741 -2.072,3.587 -0.845,8.174 2.742,10.247 l 46.361,26.788 c 1.182,0.683 2.472,1.008 3.745,1.008 2.591,0 5.111,-1.345 6.501,-3.749 2.072,-3.587 0.845,-8.174 -2.742,-10.247 z"
   id="path12572"
   style="stroke-width:7.49157;fill:#828282;fill-opacity:1" />
</g></g><g
       style="fill:#687aff;stroke-width:6.81402;fill-opacity:1"
       id="g14048"
       transform="matrix(1.5531679,0,0,1.5531679,249.18515,140.64004)"><path
         fill-rule="evenodd"
         clip-rule="evenodd"
         d="m 6,0 h 9 c 1.1046,0 2,0.942558 2,2.10526 V 17.8947 C 17,19.0574 16.1046,20 15,20 H 6 C 4.89543,20 4,19.0574 4,17.8947 V 2.10526 C 4,0.942558 4.89543,0 6,0 Z M 7,2 C 6.44772,2 6,2.44772 6,3 v 14 c 0,0.5523 0.44772,1 1,1 h 7 c 0.5523,0 1,-0.4477 1,-1 V 3 C 15,2.44772 14.5523,2 14,2 H 13 V 3.5 C 13,3.77614 12.7761,4 12.5,4 h -4 C 8.22386,4 8,3.77614 8,3.5 V 2 Z"
         fill="#000000"
         id="path14039"
         style="stroke-width:20.2854;fill:#687aff;fill-opacity:1" /></g><!--!Font Awesome Free 6.7.2 by @fontawesome - https://fontawesome.com License - https://fontawesome.com/license/free Copyright 2025 Fonticons, Inc.--><path
       d="m 269.39026,191.6903 c 0.89848,0 1.69126,-0.73992 1.69126,-1.69654 0.0529,-0.47567 -0.15856,-0.89849 -0.58137,-1.26845 l -2.79058,-2.45762 v -6.39508 c 0,-0.93549 -0.75579,-1.69127 -1.69126,-1.69127 h -1.69127 c -0.93548,0 -1.69126,0.75578 -1.69126,1.69127 v 1.93966 l -5.62873,-4.95223 c -0.31711,-0.26426 -0.73993,-0.36996 -1.10989,-0.36996 -0.36997,0 -0.79278,0.0528 -1.16275,0.42281 l -13.55653,11.81242 c -0.36995,0.36996 -0.52851,0.79278 -0.52851,1.26845 0,0.95133 0.73992,1.69654 1.69126,1.69654 h 1.69126 v 3.68379 c -0.005,0.0476 -0.005,0.0951 -0.005,0.14798 v 5.91942 c 0,1.16802 0.94605,2.11407 2.11407,2.11407 h 0.84563 c 0.0634,0 0.12685,-0.005 0.19027,-0.0106 0.0793,0.005 0.15855,0.0106 0.23783,0.0106 h 1.68598 1.26845 c 1.16802,0 2.11407,-0.94605 2.11407,-2.11407 v -1.26845 -3.38252 c 0,-0.93548 0.75579,-1.69127 1.69127,-1.69127 h 3.38252 c 0.93548,0 1.69126,0.75579 1.69126,1.69127 v 3.38252 1.26845 c 0,1.16802 0.94605,2.11407 2.11409,2.11407 h 1.26844 1.71769 c 0.074,0 0.14798,0 0.22198,-0.005 0.0581,0.005 0.11627,0.005 0.17441,0.005 h 0.84562 c 1.16804,0 2.11409,-0.94605 2.11409,-2.11407 v -0.8562 c 0.0159,-0.13742 0.0264,-0.28012 0.0264,-0.4281 l -0.037,-8.46689 h 1.69127 z"
       id="path15139"
       style="stroke-width:0.264582;fill:#c5cd49;fill-opacity:1" /><!--!Font Awesome Free 6.7.2 by @fontawesome - https://fontawesome.com License - https://fontawesome.com/license/free Copyright 2025 Fonticons, Inc.--><path
       d="m 205.55946,182.29019 c -0.57042,-0.57043 -0.57042,-1.49223 0,-2.06265 0.57042,-0.57042 1.49678,-0.57042 2.06721,0 l 8.76167,8.76167 c 0.57042,0.57043 0.57042,1.49679 0,2.06721 l -8.76167,8.76167 c -0.57043,0.57043 -1.49679,0.57043 -2.06721,0 -0.57042,-0.57042 -0.57042,-1.49678 0,-2.0672 l 7.72579,-7.73035 z m 11.25327,15.03174 h 13.14251 c 0.80772,0 1.46028,0.65256 1.46028,1.46028 0,0.80772 -0.65256,1.46028 -1.46028,1.46028 h -13.14251 c -0.80771,0 -1.46028,-0.65256 -1.46028,-1.46028 0,-0.80772 0.65257,-1.46028 1.46028,-1.46028 z"
       id="path15874"
       style="stroke-width:0.264584;fill:#2fd595;fill-opacity:1" /><!--!Font Awesome Free 6.7.2 by @fontawesome - https://fontawesome.com License - https://fontawesome.com/license/free Copyright 2025 Fonticons, Inc.--><path
       d="m 239.8545,207.24084 c 0,-0.66925 -0.53843,-1.20768 -1.20769,-1.20768 -0.66926,0 -1.20768,0.53843 -1.20768,1.20768 v 2.01281 c -1.7763,0 -3.22049,1.44419 -3.22049,3.22049 h -2.01281 c -0.66926,0 -1.20769,0.53843 -1.20769,1.20768 0,0.66926 0.53843,1.20769 1.20769,1.20769 h 2.01281 v 2.81793 h -2.01281 c -0.66926,0 -1.20769,0.53843 -1.20769,1.20768 0,0.66926 0.53843,1.20769 1.20769,1.20769 h 2.01281 v 2.81793 h -2.01281 c -0.66926,0 -1.20769,0.53843 -1.20769,1.20769 0,0.66925 0.53843,1.20768 1.20769,1.20768 h 2.01281 c 0,1.7763 1.44419,3.22049 3.22049,3.22049 v 2.0128 c 0,0.66926 0.53842,1.20769 1.20768,1.20769 0.66926,0 1.20769,-0.53843 1.20769,-1.20769 v -2.0128 h 2.81793 v 2.0128 c 0,0.66926 0.53842,1.20769 1.20768,1.20769 0.66926,0 1.20769,-0.53843 1.20769,-1.20769 v -2.0128 h 2.81792 v 2.0128 c 0,0.66926 0.53843,1.20769 1.20769,1.20769 0.66926,0 1.20769,-0.53843 1.20769,-1.20769 v -2.0128 c 1.77629,0 3.22048,-1.44419 3.22048,-3.22049 h 2.01281 c 0.66926,0 1.20769,-0.53843 1.20769,-1.20768 0,-0.66926 -0.53843,-1.20769 -1.20769,-1.20769 h -2.01281 v -2.81793 h 2.01281 c 0.66926,0 1.20769,-0.53843 1.20769,-1.20769 0,-0.66925 -0.53843,-1.20768 -1.20769,-1.20768 h -2.01281 v -2.81793 h 2.01281 c 0.66926,0 1.20769,-0.53843 1.20769,-1.20769 0,-0.66925 -0.53843,-1.20768 -1.20769,-1.20768 h -2.01281 c 0,-1.7763 -1.44419,-3.22049 -3.22048,-3.22049 v -2.01281 c 0,-0.66925 -0.53843,-1.20768 -1.20769,-1.20768 -0.66926,0 -1.20769,0.53843 -1.20769,1.20768 v 2.01281 h -2.81792 v -2.01281 c 0,-0.66925 -0.53843,-1.20768 -1.20769,-1.20768 -0.66926,0 -1.20768,0.53843 -1.20768,1.20768 v 2.01281 h -2.81793 z m -0.80513,5.2333 h 9.66148 c 0.89067,0 1.61025,0.71958 1.61025,1.61025 v 9.66147 c 0,0.89067 -0.71958,1.61025 -1.61025,1.61025 h -9.66148 c -0.89067,0 -1.61024,-0.71958 -1.61024,-1.61025 v -9.66147 c 0,-0.89067 0.71957,-1.61025 1.61024,-1.61025 z m 9.66148,1.61025 h -9.66148 v 9.66147 h 9.66148 z"
       id="path16609"
       style="stroke-width:0.264583;fill:#2f9fd5;fill-opacity:1" /><!--!Font Awesome Free 6.7.2 by @fontawesome - https://fontawesome.com License - https://fontawesome.com/license/free Copyright 2025 Fonticons, Inc.--><path
       d="m 206.6412,243.49918 c 0.22698,0 0.45396,0.0494 0.6612,0.1431 l 9.29141,3.94256 c 1.08556,0.45889 1.8948,1.52964 1.88986,2.82245 -0.0247,4.89489 -2.03789,13.85076 -10.5398,17.92161 -0.82404,0.39474 -1.7813,0.39474 -2.60534,0 -8.50191,-4.07085 -10.51513,-13.02672 -10.5398,-17.92161 -0.005,-1.29281 0.8043,-2.36356 1.88986,-2.82245 l 9.29634,-3.94256 c 0.20231,-0.0938 0.42929,-0.1431 0.65627,-0.1431 z m 0,3.29616 v 18.65682 c 6.80942,-3.30109 8.64007,-10.59901 8.68448,-14.97579 l -8.68448,-3.68103 c 0,0 0,0 0,0 z"
       id="path17344"
       style="stroke-width:0.264583;fill:#d5402f;fill-opacity:1" /><g
       style="fill:#29d6c1;stroke-width:7.06862;fill-opacity:1"
       id="g18454"
       transform="matrix(1.2476894,0,0,1.2476894,182.14509,201.8556)"><path
         d="M 10.3,6.74 A 0.75,0.75 0 0 1 10.26,7.8 l -2.908,2.7 2.908,2.7 a 0.75006666,0.75006666 0 1 1 -1.02,1.1 l -3.5,-3.25 a 0.75,0.75 0 0 1 0,-1.1 L 9.24,6.7 a 0.75,0.75 0 0 1 1.06,0.04 z m 3.44,1.06 a 0.75006666,0.75006666 0 1 1 1.02,-1.1 l 3.5,3.25 a 0.75,0.75 0 0 1 0,1.1 l -3.5,3.25 a 0.75006666,0.75006666 0 1 1 -1.02,-1.1 l 2.908,-2.7 z"
         id="path18442"
         style="stroke-width:7.06862;fill:#29d6c1;fill-opacity:1" /><path
         fill-rule="evenodd"
         d="M 1.5,4.25 C 1.5,3.284 2.284,2.5 3.25,2.5 h 17.5 c 0.966,0 1.75,0.784 1.75,1.75 v 12.5 A 1.75,1.75 0 0 1 20.75,18.5 H 11.06 L 7.487,22.073 A 1.457,1.457 0 0 1 5,21.043 V 18.5 H 3.25 A 1.75,1.75 0 0 1 1.5,16.75 Z M 3.25,4 A 0.25,0.25 0 0 0 3,4.25 v 12.5 C 3,16.888 3.112,17 3.25,17 h 2.5 a 0.75,0.75 0 0 1 0.75,0.75 v 3.19 l 3.72,-3.72 A 0.75,0.75 0 0 1 10.75,17 h 10 A 0.25,0.25 0 0 0 21,16.75 V 4.25 A 0.25,0.25 0 0 0 20.75,4 Z"
         id="path18444"
         style="stroke-width:126.067;fill:#29d6c1;fill-opacity:1" /></g><g
       style="fill:#ff7e00;stroke-width:10.3137;fill-opacity:1"
       id="g19917"
       transform="matrix(0.85512163,0,0,0.85512163,210.42132,223.0482)"><path
         fill-rule="evenodd"
         d="m 7.72,0.22 a 0.75,0.75 0 0 1 1.06,0 L 9.984,1.423 A 4.983,4.983 0 0 1 12,1 c 0.717,0 1.4,0.151 2.016,0.423 L 15.22,0.22 a 0.75,0.75 0 0 1 1.06,1.06 L 15.309,2.252 A 4.988,4.988 0 0 1 17,6 v 1.104 a 2.755,2.755 0 0 1 1.917,1.974 l 1.998,-0.999 a 0.75,0.75 0 0 1 0.67,1.342 L 19,10.714 V 13.5 l 3.25,0.003 a 0.75,0.75 0 1 1 0,1.5 L 19,15.001 V 16 a 7.02,7.02 0 0 1 -0.204,1.686 0.833,0.833 0 0 1 0.04,0.018 l 2.75,1.375 a 0.75020081,0.75020081 0 1 1 -0.671,1.342 L 18.277,19.102 A 7,7 0 0 1 12,23 7,7 0 0 1 5.803,19.258 L 3.045,20.439 A 0.75,0.75 0 1 1 2.455,19.061 L 5.25,17.862 A 7.007,7.007 0 0 1 5,16 V 15.004 H 1.75 a 0.75,0.75 0 0 1 0,-1.5 H 5 v -2.79 L 2.415,9.42 A 0.75,0.75 0 0 1 3.085,8.078 L 5.083,9.077 A 2.755,2.755 0 0 1 7,7.104 V 6 A 4.99,4.99 0 0 1 8.69,2.252 L 7.72,1.28 a 0.75,0.75 0 0 1 0,-1.06 z M 8.5,7 h 7 V 6 a 3.5,3.5 0 1 0 -7,0 z m -2,3.266 V 9.75 C 6.5,9.06 7.06,8.5 7.75,8.5 h 8.5 c 0.69,0 1.25,0.56 1.25,1.25 V 16 a 5.5,5.5 0 0 1 -11,0 z"
         id="path19908"
         style="stroke-width:23.6078;fill:#ff7e00;fill-opacity:1" /></g></g><style
     type="text/css"
     id="style5927">
<![CDATA[
	.st0{fill:#000000;}
]]>
</style></svg>
