<?xml version="1.0" encoding="UTF-8" standalone="no"?>
<!-- Created with Inkscape (http://www.inkscape.org/) -->

<svg
   width="400mm"
   height="300mm"
   viewBox="0 0 400 300"
   version="1.1"
   id="svg5"
   xml:space="preserve"
   inkscape:export-filename="pictogram.svg"
   inkscape:export-xdpi="96"
   inkscape:export-ydpi="96"
   sodipodi:docname="pictogram_bg.svg"
   inkscape:version="1.2.2 (b0a8486541, 2022-12-01)"
   xmlns:inkscape="http://www.inkscape.org/namespaces/inkscape"
   xmlns:sodipodi="http://sodipodi.sourceforge.net/DTD/sodipodi-0.dtd"
   xmlns:xlink="http://www.w3.org/1999/xlink"
   xmlns="http://www.w3.org/2000/svg"
   xmlns:svg="http://www.w3.org/2000/svg"><sodipodi:namedview
     id="namedview7"
     pagecolor="#ffffff"
     bordercolor="#000000"
     borderopacity="0.25"
     inkscape:showpageshadow="2"
     inkscape:pageopacity="0.0"
     inkscape:pagecheckerboard="0"
     inkscape:deskcolor="#d1d1d1"
     inkscape:document-units="mm"
     showgrid="false"
     inkscape:zoom="0.72936806"
     inkscape:cx="730.08407"
     inkscape:cy="567.61466"
     inkscape:window-width="1854"
     inkscape:window-height="1043"
     inkscape:window-x="0"
     inkscape:window-y="0"
     inkscape:window-maximized="1"
     inkscape:current-layer="layer1" /><defs
     id="defs2"><linearGradient
       inkscape:collect="always"
       id="linearGradient5971"><stop
         style="stop-color:#fafafa;stop-opacity:1;"
         offset="0"
         id="stop5967" /><stop
         style="stop-color:#c7c7c7;stop-opacity:1;"
         offset="1"
         id="stop5969" /></linearGradient><linearGradient
       inkscape:collect="always"
       id="linearGradient5963"><stop
         style="stop-color:#00e676;stop-opacity:1;"
         offset="0"
         id="stop5959" /><stop
         style="stop-color:#5ce6a2;stop-opacity:1;"
         offset="1"
         id="stop5961" /></linearGradient><linearGradient
       inkscape:collect="always"
       id="linearGradient5955"><stop
         style="stop-color:#2979ff;stop-opacity:1;"
         offset="0"
         id="stop5951" /><stop
         style="stop-color:#8fb9ff;stop-opacity:1;"
         offset="1"
         id="stop5953" /></linearGradient><linearGradient
       inkscape:collect="always"
       xlink:href="#linearGradient5955"
       id="linearGradient5957"
       x1="0"
       y1="50"
       x2="100"
       y2="50"
       gradientUnits="userSpaceOnUse" /><linearGradient
       inkscape:collect="always"
       xlink:href="#linearGradient5963"
       id="linearGradient5965"
       x1="14.644625"
       y1="29.045189"
       x2="85.355266"
       y2="29.045189"
       gradientUnits="userSpaceOnUse" /><linearGradient
       inkscape:collect="always"
       xlink:href="#linearGradient5971"
       id="linearGradient5973"
       x1="14.644695"
       y1="70.954845"
       x2="85.355338"
       y2="70.954845"
       gradientUnits="userSpaceOnUse" /></defs><g
     inkscape:groupmode="layer"
     id="layer2"
     inkscape:label="레이어 2" /><g
     inkscape:label="레이어 1"
     inkscape:groupmode="layer"
     id="layer1"
     transform="matrix(0.85149494,0,0,0.85149494,29.700872,22.275908)"><path
       d="m 6.7934718,203.32902 c -4.6094234,-4.67214 -4.6094234,-12.26043 0,-16.93257 4.6094222,-4.67213 12.0722942,-4.67213 16.6817182,0 l 2.775064,2.82209 2.77506,-2.82209 c 4.609423,-4.67213 12.072302,-4.67213 16.681725,0 4.609423,4.67214 4.609423,12.26043 0,16.93257 l -15.929166,16.18002 c -0.972052,0.98773 -2.241999,1.47376 -3.527619,1.47376 -1.28562,0 -2.555565,-0.48603 -3.527623,-1.47376 z m 63.3874102,31.26256 c 2.053855,2.79073 1.458077,6.71031 -1.332654,8.76417 l -19.848744,14.62786 c -3.668725,2.69667 -8.090008,4.15476 -12.652395,4.15476 H 11.199076 -13.886219 c -2.775064,0 -5.017062,-2.24201 -5.017062,-5.01706 V 247.0872 c 0,-2.77507 2.241998,-5.01708 5.017062,-5.01708 h 5.7696132 l 7.0395614,-5.64418 c 3.5589812,-2.85345 7.9802645,-4.38992 12.5426494,-4.38992 h 12.276121 2.508528 10.034118 c 2.775065,0 5.017062,2.24199 5.017062,5.01704 0,2.77507 -2.241997,5.01706 -5.017062,5.01706 H 26.250254 23.741726 c -1.379695,0 -2.508533,1.12885 -2.508533,2.50854 0,1.37969 1.128838,2.50854 2.508533,2.50854 h 18.908045 l 18.766932,-13.82828 c 2.79074,-2.05386 6.710324,-1.45809 8.764179,1.33266 z m -58.730956,7.47854 c 0,0 0,0 0,0 h -0.141101 c 0.04705,0 0.09407,0 0.141101,0 z"
       id="path132"
       style="fill:#f45b69;stroke-width:0.264583;fill-opacity:1" /><path
       d="m 373.3719,224.12961 c -12.97925,0 -23.96043,8.50421 -27.69237,20.22847 5.54839,-2.80722 11.80682,-4.37596 18.44507,-4.37596 h 14.53147 c 1.45314,0 2.64209,1.18894 2.64209,2.64209 0,1.45315 -1.18895,2.64209 -2.64209,2.64209 h -2.64208 -11.88939 c 0,0 0,0 0,0 -2.74117,0 -5.39977,0.31375 -7.9758,0.8917 -4.27688,0.97427 -8.24001,2.70814 -11.79031,5.06951 0,0 0,0 0,0 -9.57756,6.39054 -15.90206,17.30566 -15.90206,29.70695 v 2.64209 c 0,2.19623 1.7669,3.96313 3.96313,3.96313 2.19623,0 3.96313,-1.7669 3.96313,-3.96313 v -2.64209 c 0,-8.04185 3.4182,-15.27456 8.88401,-20.34406 3.26959,12.46734 14.61403,21.6651 28.1052,21.6651 h 0.16513 c 21.81373,-0.11559 39.46616,-21.61556 39.46616,-48.119 0,-7.03455 -1.23848,-13.72233 -3.48426,-19.74958 -0.42934,-1.13941 -2.09715,-1.08986 -2.67511,-0.0166 -3.10445,5.81259 -9.2473,9.7592 -16.29837,9.7592 z"
       id="path141"
       style="fill:#9fd356;stroke-width:0.264583;fill-opacity:1" /><path
       d="M -9.5941175,76.204781 C -9.2615708,56.570078 4.4885057,42.603124 21.318253,40.333132 c 20.068464,-2.689289 36.956048,10.959577 40.194766,29.076134 3.079668,17.176751 -6.361769,33.254644 -21.91916,39.616414 -1.344647,0.54942 -2.082036,0.24579 -2.602544,-1.11332 Q 33.130887,97.863677 29.270453,87.814993 c -0.448216,-1.171142 -0.144584,-1.908528 1.012096,-2.429035 3.49897,-1.59044 5.682211,-4.250812 6.260551,-8.067868 A 10.337859,10.337859 0 0 0 27.217339,65.433166 c -5.638833,-0.491591 -10.381235,3.426675 -11.205373,8.631751 -0.751843,4.77132 1.604899,9.210093 6.058131,11.234289 1.388021,0.636176 1.662733,1.243435 1.127767,2.660373 q -3.88935,10.106522 -7.764239,20.227491 c -0.375922,0.99765 -1.20006,1.34465 -2.241075,0.93981 C 5.5873554,106.1918 -1.4684139,100.30717 -5.7192267,91.921219 -9.3194051,84.807616 -9.3627804,79.241076 -9.5941175,76.204781 Z m 3.0218365,-0.274712 c 0.057834,0.954264 0.086751,2.067572 0.1879609,3.195339 0.9108887,10.395693 7.17143881,20.748003 18.9406941,26.473592 0.462674,0.21688 0.636176,0.11567 0.809679,-0.33255 q 3.238714,-8.48716 6.506345,-16.959866 c 0.187961,-0.477133 0.08675,-0.694011 -0.347005,-0.968722 -4.5689,-2.877251 -6.838892,-7.012395 -6.593096,-12.434349 0.144584,-3.123046 1.344644,-5.855711 3.441133,-8.140161 4.337564,-4.727944 11.13308,-5.754501 16.699619,-2.544704 a 13.244027,13.244027 0 0 1 6.535264,13.070524 c -0.520507,4.424315 -2.7905,7.793156 -6.607555,10.092065 -0.390379,0.231336 -0.506049,0.419297 -0.332546,0.867512 q 3.296548,8.50162 6.535264,17.017701 c 0.173502,0.44822 0.347005,0.54943 0.80968,0.33255 5.132784,-2.40012 9.42697,-5.826792 12.737978,-10.410157 5.031578,-6.969011 7.099152,-14.73325 6.115968,-23.27825 C 56.88628,54.921804 41.603593,40.85364 21.925512,43.282675 6.584995,45.162286 -6.3120268,58.102684 -6.572281,75.930069 Z"
       id="path150"
       style="fill:#59cd90;stroke-width:0.264583;fill-opacity:1" /><path
       d="m 156.86229,-8.5107293 a 7.3204207,8.0732956 0 1 1 14.64084,0 7.3204207,8.0732956 0 1 1 -14.64084,0 z m -1.04578,22.7349763 c -1.30722,1.614657 -2.09154,3.762734 -2.09154,6.098224 0,2.335489 0.78432,4.483561 2.09154,6.098218 v -12.21086 z m 18.87623,-7.107384 c -3.88244,3.791564 -6.32693,9.341956 -6.32693,15.512262 0,4.944894 1.56866,9.486122 4.1831,13.047023 v 3.099573 c 0,2.551735 -1.86933,4.613307 -4.1831,4.613307 h -8.3662 c -2.31377,0 -4.1831,-2.061572 -4.1831,-4.613307 v -3.863653 c -4.94128,-2.594988 -8.36619,-8.14538 -8.36619,-14.589597 0,-8.923876 6.54916,-16.1465952 14.64084,-16.1465952 h 4.18309 c 3.13733,0 6.03935,1.0812476 8.41849,2.9265692 z m 31.32094,31.658858 v -3.099573 c 2.61444,-3.560901 4.1831,-8.102129 4.1831,-13.047023 0,-6.170306 -2.4445,-11.720698 -6.32693,-15.52668 2.37913,-1.8453216 5.28116,-2.9265692 8.41848,-2.9265692 h 4.18309 c 8.09168,0 14.64084,7.2227192 14.64084,16.1465952 0,6.444217 -3.42491,11.994609 -8.36619,14.589597 v 3.863653 c 0,2.551735 -1.86932,4.613307 -4.1831,4.613307 h -8.36619 c -2.31378,0 -4.1831,-2.061572 -4.1831,-4.613307 z m 1.04578,-47.2864503 a 7.3204207,8.0732956 0 1 1 14.64083,0 7.3204207,8.0732956 0 1 1 -14.64083,0 z m 15.68661,22.7349763 v 12.21086 c 1.30722,-1.629075 2.09155,-3.762735 2.09155,-6.098224 0,-2.335489 -0.78433,-4.483562 -2.09155,-6.098219 z M 189.2813,-16.584027 a 8.3661952,9.2266244 0 1 1 0,18.4532487 8.3661952,9.2266244 0 1 1 0,-18.4532487 z m -10.45775,39.213152 c 0,2.335489 0.78433,4.469144 2.09154,6.098218 V 16.516488 c -1.30721,1.629075 -2.09154,3.76273 -2.09154,6.098219 z m 18.82394,-6.098224 v 12.21086 c 1.30722,-1.629075 2.09154,-3.762729 2.09154,-6.098219 0,-2.335489 -0.78432,-4.483561 -2.09154,-6.098224 z m 8.36619,6.098224 c 0,6.444217 -3.42491,11.994615 -8.36619,14.589603 v 6.1703 c 0,2.551742 -1.86932,4.613314 -4.1831,4.613314 h -8.3662 c -2.31377,0 -4.1831,-2.061572 -4.1831,-4.613314 v -6.1703 c -4.94128,-2.594988 -8.36618,-8.145386 -8.36618,-14.589603 0,-8.923876 6.54915,-16.1465892 14.64083,-16.1465892 h 4.1831 c 8.09168,0 14.64084,7.2227132 14.64084,16.1465892 z"
       id="path159"
       style="fill:#000000;stroke-width:0.264583" /><!--!Font Awesome Free 6.7.2 by @fontawesome - https://fontawesome.com License - https://fontawesome.com/license/free Copyright 2025 Fonticons, Inc.--><!--!Font Awesome Free 6.7.2 by @fontawesome - https://fontawesome.com License - https://fontawesome.com/license/free Copyright 2025 Fonticons, Inc.--><!--!Font Awesome Free 6.7.2 by @fontawesome - https://fontawesome.com License - https://fontawesome.com/license/free Copyright 2025 Fonticons, Inc.--><g
       id="g3055"
       transform="matrix(0.8044006,0,0,0.8044006,74.889632,-37.343145)"
       style="stroke-width:1.24316;fill:#ffd230;fill-opacity:1"><path
         d="m 392.73782,84.44591 c 0,2.883951 -2.29114,5.543596 -6.15243,7.690537 -4.66238,2.579534 -11.61591,4.406039 -19.59484,4.950783 -0.59282,-0.288395 -1.18563,-0.56077 -1.81049,-0.801098 -6.31264,-2.643622 -14.70815,-4.149685 -23.71249,-4.149685 -1.32982,0 -2.6276,0.03205 -3.92537,0.09613 l -0.17624,-0.09613 c -3.8613,-2.146941 -6.15244,-4.806586 -6.15244,-7.690537 0,-7.081703 13.77888,-12.817563 30.76215,-12.817563 16.98327,0 30.76215,5.73586 30.76215,12.817563 z M 336.4527,97.439712 c 1.63424,-0.112154 3.31655,-0.176241 5.01487,-0.176241 9.96566,0 18.80978,1.9707 24.43348,5.030889 3.97345,2.16297 6.32867,4.85465 6.32867,7.78667 0,0.64088 -0.11215,1.26574 -0.33646,1.87457 -0.737,2.1149 -2.72373,4.05355 -5.60768,5.68779 0,0 0,0 0,0 -0.016,0.016 -0.0481,0.016 -0.0641,0.0321 0,0 0,0 0,0 0,0 0,0 0,0 -0.0481,0.0321 -0.0961,0.0481 -0.14419,0.0801 -5.60769,3.10826 -14.54794,5.12703 -24.60973,5.12703 -9.54908,0 -18.08878,-1.81048 -23.74453,-4.66239 -0.30442,-0.14419 -0.59281,-0.30442 -0.88121,-0.46464 -3.84526,-2.13091 -6.13641,-4.79056 -6.13641,-7.67451 0,-5.57564 8.55573,-10.334161 20.5081,-12.080548 1.68231,-0.240333 3.4287,-0.432595 5.23918,-0.560769 z m 40.90405,12.641318 c 0,-3.50881 -1.69833,-6.39276 -3.86129,-8.55572 4.53421,-0.70496 8.68389,-1.826503 12.20873,-3.284501 2.61158,-1.089492 5.04692,-2.435335 7.03363,-4.085596 v 5.671768 c 0,3.092239 -2.64361,5.944149 -7.01761,8.155179 -2.33921,1.18562 -5.19112,2.195 -8.39551,2.96406 0.016,-0.2884 0.032,-0.56077 0.032,-0.84917 z m -5.12703,15.38107 c 0,2.88396 -2.29114,5.5436 -6.15242,7.69054 -0.2884,0.16022 -0.57679,0.30442 -0.88122,0.46464 -5.63971,2.85191 -14.17942,4.66238 -23.72851,4.66238 -10.06178,0 -19.00203,-2.01876 -24.60972,-5.12702 -3.86128,-2.14694 -6.15243,-4.80658 -6.15243,-7.69054 v -5.67177 c 2.00275,1.65027 4.42206,2.99611 7.03364,4.0856 6.32867,2.64362 14.72418,4.14969 23.72851,4.14969 9.00434,0 17.39985,-1.50607 23.72851,-4.14969 1.24972,-0.5127 2.45136,-1.10551 3.58892,-1.74639 0.97734,-0.54474 1.89059,-1.15358 2.75578,-1.79446 0.24033,-0.17624 0.46463,-0.36851 0.68894,-0.54475 v 0.54475 0.91325 z m 5.12703,0 v -5.12702 -4.14969 c 3.04417,-0.67292 5.84801,-1.52208 8.34744,-2.56351 2.61158,-1.08949 5.04691,-2.43533 7.03363,-4.08559 v 5.67177 c 0,1.6823 -0.80109,3.36461 -2.38727,4.95078 -2.61158,2.61158 -7.20988,4.75852 -13.02585,6.15243 0.016,-0.27238 0.032,-0.56077 0.032,-0.84917 z m -35.88918,17.94459 c 9.00434,0 17.39985,-1.50606 23.72851,-4.14968 2.61158,-1.08949 5.04692,-2.43534 7.03364,-4.0856 v 5.67177 c 0,7.0817 -13.77887,12.81756 -30.76215,12.81756 -16.98327,0 -30.76215,-5.73586 -30.76215,-12.81756 v -5.67177 c 2.00275,1.65026 4.42206,2.99611 7.03364,4.0856 6.32867,2.64362 14.72418,4.14968 23.72851,4.14968 z"
         id="path1573"
         style="stroke-width:0.386285;fill:#ffd230;fill-opacity:1" /><path
         d="m 295.70072,67.35363 c -0.35899,-1.076977 -1.52571,-1.653927 -2.59628,-1.301349 -1.07056,0.352582 -1.65392,1.525716 -1.30134,2.596278 l 3.20528,9.609433 h -1.25647 c -1.13466,0 -2.05138,0.916711 -2.05138,2.051379 0,1.134673 0.91672,2.05138 2.05138,2.05138 h 2.62192 l 3.6348,10.904367 c 0.28846,0.865426 1.11543,1.435965 2.02573,1.403909 0.9103,-0.03205 1.69238,-0.666694 1.91034,-1.551355 l 2.69244,-10.756921 h 2.94886 l 2.69244,10.756921 c 0.21796,0.884661 1.00004,1.519305 1.91034,1.551355 0.9103,0.03205 1.73727,-0.538483 2.02574,-1.403909 l 3.63479,-10.904367 h 2.62192 c 1.13467,0 2.05138,-0.916707 2.05138,-2.05138 0,-1.134668 -0.91671,-2.051379 -2.05138,-2.051379 h -1.25647 l 3.20528,-9.609433 c 0.35899,-1.076973 -0.22437,-2.237286 -1.29493,-2.596278 -1.07057,-0.358988 -2.23729,0.224372 -2.59628,1.294938 l -3.6412,10.910773 h -4.10276 l -2.68603,-10.756921 c -0.22436,-0.910301 -1.04492,-1.551356 -1.98727,-1.551356 -0.94235,0 -1.7629,0.641055 -1.98727,1.551356 l -2.69244,10.756921 h -4.10276 z m 5.00024,15.007121 h 1.70521 l -0.7308,2.923215 z m 6.96187,-4.102759 0.44874,-1.801368 0.44874,1.801368 z m 6.15414,4.102759 h 1.70521 l -0.9744,2.923215 z"
         id="path2308"
         style="stroke-width:0.386285;fill:#ffd230;fill-opacity:1" /><path
         d="m 411.14865,103.51953 c 1.60622,0 2.90389,1.29768 2.90389,2.9039 v 3.23964 c 0.1452,0.0181 0.28132,0.0363 0.42651,0.0635 0.0363,0.009 0.0636,0.009 0.0998,0.0181 l 4.35583,0.79857 c 1.57899,0.29038 2.62257,1.80585 2.33219,3.37577 -0.2904,1.56991 -1.80586,2.62258 -3.37578,2.33219 l -4.31046,-0.7895 c -2.84036,-0.41743 -5.34497,-0.13612 -7.10545,0.56263 -1.76048,0.69875 -2.46831,1.66066 -2.63165,2.54998 -0.1815,0.97098 -0.0453,1.51547 0.10889,1.85123 0.16335,0.35391 0.49911,0.75319 1.16156,1.19785 1.47917,0.97098 3.74784,1.60622 6.68802,2.38664 l 0.26316,0.0726 c 2.59536,0.68967 5.77148,1.52454 8.1309,3.06723 1.2886,0.84394 2.5046,1.98735 3.2578,3.58448 0.77134,1.62437 0.93468,3.4393 0.58077,5.3722 -0.62615,3.44837 -3.00371,5.75333 -5.95298,6.96026 -1.24322,0.50818 -2.59534,0.83487 -4.02914,0.99821 v 3.03094 c 0,1.60621 -1.29767,2.90388 -2.90389,2.90388 -1.60621,0 -2.90388,-1.29767 -2.90388,-2.90388 v -3.16706 c -0.0363,-0.009 -0.0817,-0.009 -0.11797,-0.0182 h -0.0181 c 0,0 0,0 0,0 -2.21421,-0.34483 -5.85315,-1.29767 -8.3033,-2.38664 -1.46102,-0.65336 -2.12347,-2.36848 -1.4701,-3.8295 0.65338,-1.46102 2.36849,-2.12347 3.8295,-1.47008 1.89661,0.84394 5.01829,1.6788 6.82415,1.96012 2.89481,0.4265 5.28144,0.18149 6.89673,-0.48096 1.53362,-0.62615 2.23237,-1.53361 2.43201,-2.62257 0.17241,-0.96192 0.0363,-1.51547 -0.11797,-1.85123 -0.17242,-0.36298 -0.50818,-0.76226 -1.1797,-1.20691 -1.48825,-0.971 -3.76599,-1.60622 -6.71525,-2.38664 l -0.25409,-0.0635 c 0,0 0,0 0,0 -2.58628,-0.70781 -5.7624,-1.55176 -8.12181,-3.09445 -1.2886,-0.84394 -2.49553,-1.99642 -3.24873,-3.59356 -0.76227,-1.62437 -0.91654,-3.43929 -0.55355,-5.3722 0.65337,-3.46651 3.24873,-5.71703 6.19798,-6.88766 1.20693,-0.48096 2.53183,-0.80764 3.92025,-0.99821 v -3.20335 c 0,-1.60622 1.29768,-2.90389 2.9039,-2.90389 z"
         id="path3043"
         style="stroke-width:0.386285;fill:#ffd230;fill-opacity:1" /></g><!--!Font Awesome Free 6.7.2 by @fontawesome - https://fontawesome.com License - https://fontawesome.com/license/free Copyright 2025 Fonticons, Inc.--><path
       d="m 209.56097,250.70895 c -2.23261,-0.64351 -4.55715,0.65665 -5.20066,2.88926 l -16.81021,58.83574 c -0.64352,2.2326 0.65665,4.55714 2.88925,5.20066 2.23261,0.64351 4.55715,-0.65665 5.20066,-2.88926 l 16.81021,-58.83574 c 0.64352,-2.2326 -0.65665,-4.55714 -2.88925,-5.20066 z m 10.58518,15.77271 c -1.64162,1.64162 -1.64162,4.30761 0,5.94924 l 11.72775,11.74088 -11.74089,11.74088 c -1.64162,1.64162 -1.64162,4.30762 0,5.94924 1.64162,1.64162 4.30762,1.64162 5.94924,0 l 14.70894,-14.70894 c 1.64162,-1.64162 1.64162,-4.30761 0,-5.94923 l -14.70894,-14.70894 c -1.64162,-1.64162 -4.30762,-1.64162 -5.94924,0 z m -40.27884,0 c -1.64163,-1.64162 -4.30762,-1.64162 -5.94924,0 l -14.70894,14.70893 c -1.64162,1.64162 -1.64162,4.30762 0,5.94924 l 14.70894,14.70894 c 1.64162,1.64162 4.30761,1.64162 5.94924,0 1.64162,-1.64163 1.64162,-4.30762 0,-5.94924 l -11.74088,-11.72775 11.74088,-11.74088 c 1.64162,-1.64163 1.64162,-4.30762 0,-5.94924 z"
       id="path3783"
       style="stroke-width:0.310728" /><g
       inkscape:label="레이어 1"
       inkscape:groupmode="layer"
       id="layer1-5"
       transform="matrix(1.0176855,0,0,1.0176855,141.28241,112.02581)"
       style="stroke-width:0.305328"><g
         id="g1369"
         transform="matrix(0.79510363,-0.79510363,0.79510363,0.79510363,-21.813015,37.314097)"
         style="stroke-width:0.271537"><path
           style="fill:url(#linearGradient5957);fill-opacity:1;stroke-width:0.130368"
           id="path234"
           sodipodi:type="arc"
           sodipodi:cx="50"
           sodipodi:cy="50"
           sodipodi:rx="50"
           sodipodi:ry="50"
           sodipodi:start="2.6355349"
           sodipodi:end="2.6256867"
           sodipodi:open="true"
           sodipodi:arc-type="arc"
           d="M 6.2668882,74.236644 A 50,50 0 0 1 25.655756,6.3266925 50,50 0 0 1 93.613238,25.548304 50,50 0 0 1 74.559,93.552905 50,50 0 0 1 6.5076924,74.666155"
           inkscape:highlight-color="#90aeff" /><path
           id="path10531"
           style="fill:url(#linearGradient5973);fill-opacity:1;stroke-width:0.130368"
           d="m 85.355338,71.213204 a 50.027615,50.029938 45 0 0 -59.713341,-8.342883 50.027615,50.029938 45 0 0 -10.997302,8.34299 l 14.14196,14.141961 a 30.016573,30.017968 45 0 1 6.598525,-5.006083 30.016573,30.017968 45 0 1 35.828147,5.006018 z" /><path
           id="path10531-2"
           style="fill:url(#linearGradient5965);fill-opacity:1;stroke-width:0.130368"
           d="m 14.644625,28.786833 a 50.027615,50.029938 45 0 0 59.713339,8.34288 50.027615,50.029938 45 0 0 10.997302,-8.34299 l -14.14196,-14.14196 a 30.016573,30.017968 45 0 1 -6.598526,5.00608 30.016573,30.017968 45 0 1 -35.828145,-5.00601 z" /><g
           id="g748"
           style="fill:#9cc05d;fill-opacity:1;stroke:#9cc05d;stroke-width:1.35768;stroke-dasharray:none;stroke-opacity:1" /></g><path
         style="fill:none;stroke:#0be67b;stroke-width:1.1539961;stroke-linecap:round;stroke-linejoin:round;stroke-dasharray:1.15399611, 3.46198833;stroke-dashoffset:0;stroke-opacity:1;fill-opacity:1"
         id="path6147"
         d="m 89.617511,-68.486809 c 3.460739,2.636625 6.572375,5.666368 9.479422,8.892771 2.273387,2.790272 4.368687,5.780527 5.809387,9.096037 0.7721,1.776829 0.90566,2.450643 1.43032,4.270725 1.02319,3.797781 0.83516,7.314074 0.15756,11.131882 -0.6664,3.935607 -2.15838,7.121572 -4.16981,10.524145 -1.46193,2.246122 -2.953184,4.47841 -4.569102,6.617615 -0.142506,0.196641 -0.285015,0.393278 -0.427524,0.589919 0,0 3.888576,2.292339 3.888576,2.292339 v 0 c 0.13537,-0.19733 0.27074,-0.394661 0.4061,-0.591991 1.56917,-2.187652 2.9908,-4.476392 4.4386,-6.744901 0.71111,-1.197518 1.47507,-2.423496 2.07957,-3.681454 1.05879,-2.20337 1.71069,-4.57061 2.21501,-6.952969 0.67479,-3.893151 0.91017,-7.458715 -0.12594,-11.336626 -0.51895,-1.802429 -0.69079,-2.599417 -1.44359,-4.358175 -1.43172,-3.344879 -3.53879,-6.3527 -5.76734,-9.206345 -2.83922,-3.200364 -5.875471,-6.203404 -9.224936,-8.87486 0,0 -4.176303,-1.668112 -4.176303,-1.668112 z" /><path
         style="fill:none;fill-opacity:1;stroke:#2e7cff;stroke-width:1.1539961;stroke-linecap:round;stroke-linejoin:round;stroke-dasharray:1.15399611, 3.46198833;stroke-dashoffset:0;stroke-opacity:1"
         id="path6149"
         d="m 216.88753,-14.108414 c -1.3311,2.891818 -2.48124,5.8522584 -3.87882,8.7144624 -3.20793,6.32291526 -8.41643,11.1849209 -13.66179,15.8079426 -6.5481,5.590956 -13.89912,9.871336 -21.44655,13.934417 -8.49417,4.385455 -17.49262,7.668853 -26.50975,10.790968 -5.82456,1.992214 -11.78329,3.523221 -17.78949,4.848904 -3.5473,0.690557 -7.1032,1.363427 -10.68688,1.839168 -1.29619,0.18596 -2.60475,0.206952 -3.91136,0.212899 -0.19886,-6.1e-4 -0.39772,-0.0012 -0.59658,-0.0018 0,0 3.66639,2.663668 3.66639,2.663668 v 0 c 0.19877,-6.11e-4 0.39754,-0.0015 0.59631,-0.0021 1.30516,-0.01255 2.6104,-0.06229 3.89773,-0.299854 3.51644,-0.573956 7.00951,-1.28654 10.49779,-2.009081 5.97497,-1.328021 11.89232,-2.873388 17.63685,-5.012923 6.14507,-2.184778 12.23508,-4.509626 18.25765,-7.014447 1.58297,-0.658367 3.17566,-1.295766 4.73439,-2.009621 1.21551,-0.556671 2.38943,-1.200028 3.58415,-1.80004 1.77237,-0.972324 5.73431,-3.127504 7.43004,-4.134418 4.92586,-2.924958 9.64568,-6.227506 14.05917,-9.878193 1.05506,-0.914531 2.1355,-1.800587 3.16521,-2.74359 4.17659,-3.8249372 8.08271,-8.0678289 10.79989,-13.0699832 0.36279,-0.6960535 0.74424,-1.382706 1.08837,-2.0881605 1.04767,-2.1475499 1.79603,-4.4380514 3.02574,-6.4969833 0,0 -3.95846,-2.251086 -3.95846,-2.251086 z" /><path
         style="fill:none;fill-opacity:1;stroke:#0ae67b;stroke-width:1.1539961;stroke-linecap:round;stroke-linejoin:round;stroke-dasharray:1.15399611, 3.46198833;stroke-dashoffset:0;stroke-opacity:1"
         id="path6151"
         d="m 185.01625,119.82369 c -6.15156,0.45454 -12.29419,1.01985 -18.44502,1.48484 -8.97534,0.44805 -17.97079,0.96294 -26.96197,0.79292 -1.66462,-0.0315 -3.32777,-0.11804 -4.99166,-0.17705 -7.46208,-0.65772 -14.9525,-1.53453 -22.23333,-3.35928 -0.98191,-0.24609 -1.94929,-0.5469 -2.92393,-0.82035 -3.52583,-0.99709 -6.82718,-2.54066 -9.988232,-4.36477 0.953662,0.53873 1.890152,1.10905 2.860982,1.61618 0.3044,0.15901 -0.57628,-0.37395 -0.85824,-0.57001 -1.09397,-0.76067 -2.093183,-1.62439 -3.081222,-2.5153 -2.012763,-1.86412 -3.924944,-3.83195 -5.805912,-5.82773 -1.544759,-1.6588 -3.021063,-3.38397 -4.423909,-5.16428 -0.818813,-0.963779 -1.444889,-2.038739 -1.962304,-3.185793 -0.242241,-0.518438 -0.123505,-0.265431 -0.356095,-0.759073 0,0 -4.147791,-1.891896 -4.147791,-1.891896 v 0 c 0.228813,0.504238 0.106401,0.252073 0.368253,0.756002 0.516469,1.194087 1.116768,2.334469 1.985885,3.317622 1.392012,1.807388 2.901777,3.528618 4.437276,5.214948 1.875499,1.99827 3.802776,3.94775 5.775721,5.85012 2.596431,2.43673 5.439299,4.36487 8.670318,5.96016 3.11525,1.75131 6.38971,3.1808 9.84922,4.11678 0.9624,0.25502 1.91811,0.53675 2.8872,0.76505 7.25474,1.7091 14.69609,2.4981 22.10433,3.17193 1.65717,0.0491 3.31379,0.12398 4.97154,0.14726 9.01057,0.12656 18.01927,-0.41564 27.01781,-0.78422 1.64374,-0.0887 3.28869,-0.15686 4.93118,-0.26595 4.64972,-0.30882 9.29116,-0.8067 13.95554,-0.86667 0,0 -3.63564,-2.64144 -3.63564,-2.64144 z" /><path
         style="fill:none;fill-opacity:1;stroke:#2f7dff;stroke-width:1.1539961;stroke-linecap:round;stroke-linejoin:round;stroke-dasharray:1.1539961, 3.46198823;stroke-dashoffset:0;stroke-opacity:1"
         id="path6153"
         d="m 23.8454,143.84561 c -2.003286,-2.63346 -3.461426,-5.60841 -4.761187,-8.6347 -2.178714,-5.52102 -3.872406,-11.22603 -5.239256,-16.99818 -1.129919,-4.98301 -1.284824,-10.09884 -1.384352,-15.18499 0.02766,-3.191316 -0.128522,-6.39161 0.09516,-9.578933 0.110538,-1.575161 0.290544,-2.978122 0.471787,-4.545356 0.389333,-2.60063 0.895116,-5.181764 1.578205,-7.720891 0,0 -3.932489,-2.127285 -3.932489,-2.127285 v 0 c -0.607619,2.594062 -1.0536419,5.220183 -1.4497563,7.854517 -0.1012407,0.878393 -0.4346285,3.691943 -0.4985184,4.56578 -0.2345592,3.208256 -0.00244,6.431245 -0.02922,9.642688 0.090035,5.11188 0.1303996,10.26119 1.3339997,15.26297 1.414537,5.7567 3.126982,11.45218 5.142117,17.02671 1.216003,3.02388 2.645531,5.96526 4.524279,8.64103 0,0 4.149245,1.79664 4.149245,1.79664 z" /><path
         style="fill:none;fill-opacity:1;stroke:#07e679;stroke-width:1.1539961;stroke-linecap:round;stroke-linejoin:round;stroke-dasharray:1.15399611, 3.46198833;stroke-dashoffset:0;stroke-opacity:1"
         id="path6159"
         d="m -80.518995,102.27224 c -0.11891,-2.742933 -0.04791,-5.487027 0.160047,-8.223256 0.239789,-4.748653 1.257561,-9.396089 2.515262,-13.965004 1.502139,-5.496978 4.004825,-10.6289 6.647019,-15.651865 1.53856,-2.789667 3.200473,-5.535828 5.125363,-8.080116 1.226937,-1.621744 2.040621,-2.500112 3.387548,-4.046816 3.601105,-3.797848 7.620606,-7.154244 11.74231,-10.365814 2.178519,-1.790389 4.626231,-3.184038 7.017552,-4.657194 1.990669,-1.176075 4.126748,-2.064913 6.256916,-2.950807 1.748153,-0.716651 3.531349,-1.335045 5.354878,-1.828568 1.975937,-0.378225 3.855299,-1.076941 5.758525,-1.708751 2.602163,-0.843255 5.235743,-1.613506 7.929928,-2.099763 1.736676,-0.438439 3.485846,-0.792219 5.222626,-1.224326 1.319564,-0.302772 2.661514,-0.494775 4.0115075,-0.587295 0.595741,-0.03582 1.1926637,-0.0276 1.7890703,-0.02299 0.080668,6.11e-4 0.1613323,0.0015 0.242,0.0021 0,0 -3.7052608,-2.695223 -3.7052608,-2.695223 v 0 c -0.08062,-2.17e-4 -0.161247,-3.06e-4 -0.241869,-6.11e-4 -0.597295,6.11e-4 -1.194978,0.01383 -1.789827,0.0727 -1.347664,0.140234 -2.684518,0.370528 -4.003991,0.679236 -1.72453,0.425551 -3.46261,0.782089 -5.184151,1.221816 -2.683926,0.543927 -5.303003,1.361452 -7.914805,2.176519 -1.925906,0.605344 -3.849095,1.200813 -5.820226,1.644709 -1.824103,0.523051 -3.609006,1.154888 -5.356756,1.896377 -2.143801,0.919407 -4.298019,1.819619 -6.3177,2.997111 -2.358321,1.510256 -4.746482,2.979474 -6.891577,4.794561 -4.077187,3.292808 -8.104536,6.66393 -11.719606,10.46987 -1.400885,1.583175 -2.172424,2.398633 -3.45033,4.057958 -1.960481,2.54563 -3.585065,5.338525 -5.12852,8.149263 -2.595961,5.081918 -5.149994,10.213317 -6.651064,15.746862 -0.275806,0.938777 -0.576972,1.870477 -0.827421,2.816337 -0.963081,3.637213 -1.549748,7.395115 -1.895153,11.136414 -0.206686,2.723457 -0.285598,5.449066 -0.319248,8.179506 0,0 4.056953,2.06712 4.056953,2.06712 z" /><path
         style="fill:none;fill-opacity:1;stroke:#337fff;stroke-width:1.1539961;stroke-linecap:round;stroke-linejoin:round;stroke-dasharray:1.15399611, 3.46198833;stroke-dashoffset:0;stroke-opacity:1"
         id="path6163"
         d="m -67.716485,-33.107378 c 4.094926,-2.966855 8.671716,-5.361052 13.483989,-6.942536 1.397304,-0.459204 2.833439,-0.790522 4.250159,-1.185781 6.75399,-1.517261 13.714119,-2.616901 20.649388,-1.853312 1.156885,0.127377 2.297026,0.376959 3.445542,0.565438 4.816781,1.025643 9.591863,2.650489 13.722119,5.397569 0.405375,0.26962 -0.867074,-0.443025 -1.300613,-0.664537 5.145378,3.161517 10.1651436,6.52543 15.0409653,10.087699 3.8026177,2.776627 7.3947514,5.801873 10.9055457,8.933566 1.170582,1.044546 2.316863,2.114666 3.444614,3.205017 0,0 4.098667,1.688425 4.098667,1.688425 v 0 c -1.159279,-1.109758 -2.33958,-2.1961 -3.53976,-3.261741 -1.596048,-1.424536 -3.179095,-2.881641 -4.831391,-4.241139 -2.008082,-1.652235 -4.142118,-3.146813 -6.1691213,-4.775012 -4.86412461,-3.567301 -9.8744647,-6.93104 -15.0023928,-10.108382 -2.7791119,-1.650159 -5.4999189,-3.407682 -8.3651089,-4.903399 -3.549223,-1.852808 -7.365473,-3.109242 -11.301193,-3.833429 -1.151847,-0.173148 -2.296107,-0.407927 -3.455545,-0.519445 -6.938521,-0.667362 -13.88149,0.517558 -20.629645,2.026004 -1.446303,0.391294 -2.912626,0.714935 -4.338902,1.17388 -1.238988,0.398683 -2.442598,0.901543 -3.646684,1.395725 -3.573838,1.466772 -6.990231,3.283676 -10.204775,5.42701 0,0 3.744142,2.38838 3.744142,2.38838 z" /></g></g></svg>
