<?xml version="1.0" encoding="UTF-8" standalone="no"?>
<!-- Created with Inkscape (http://www.inkscape.org/) -->

<svg
   width="200"
   height="200"
   viewBox="0 0 52.916668 52.916668"
   version="1.1"
   id="svg5"
   sodipodi:docname="esg.svg"
   inkscape:version="1.2.2 (b0a8486541, 2022-12-01)"
   xmlns:inkscape="http://www.inkscape.org/namespaces/inkscape"
   xmlns:sodipodi="http://sodipodi.sourceforge.net/DTD/sodipodi-0.dtd"
   xmlns="http://www.w3.org/2000/svg"
   xmlns:svg="http://www.w3.org/2000/svg">
  <sodipodi:namedview
     id="namedview7"
     pagecolor="#ffffff"
     bordercolor="#000000"
     borderopacity="0.25"
     inkscape:showpageshadow="2"
     inkscape:pageopacity="0.0"
     inkscape:pagecheckerboard="0"
     inkscape:deskcolor="#d1d1d1"
     inkscape:document-units="mm"
     showgrid="false"
     inkscape:zoom="3.3163318"
     inkscape:cx="112.3229"
     inkscape:cy="67.846045"
     inkscape:window-width="1854"
     inkscape:window-height="1131"
     inkscape:window-x="0"
     inkscape:window-y="0"
     inkscape:window-maximized="1"
     inkscape:current-layer="layer1" />
  <defs
     id="defs2" />
  <g
     inkscape:label="레이어 1"
     inkscape:groupmode="layer"
     id="layer1">
    <!--!Font Awesome Free 6.7.2 by @fontawesome - https://fontawesome.com License - https://fontawesome.com/license/free Copyright 2025 Fonticons, Inc.-->
    <!--!Font Awesome Free 6.7.2 by @fontawesome - https://fontawesome.com License - https://fontawesome.com/license/free Copyright 2025 Fonticons, Inc.-->
    <!--!Font Awesome Free 6.7.2 by @fontawesome - https://fontawesome.com License - https://fontawesome.com/license/free Copyright 2025 Fonticons, Inc.-->
    <g
       id="g929"
       transform="matrix(1.0906398,0,0,1.0906398,-0.92693309,0.47824785)"
       style="stroke-width:0.916893">
      <path
         d="m 10.497597,32.802403 c -2.5799932,0 -4.7628132,1.690452 -5.5046452,4.020981 1.102899,-0.558014 2.346942,-0.869846 3.666482,-0.869846 h 2.8885432 c 0.288854,0 0.525191,0.236337 0.525191,0.525191 0,0.288854 -0.236337,0.525189 -0.525191,0.525189 H 11.022788 8.6594338 c 0,0 0,0 0,0 -0.544884,0 -1.073357,0.06236 -1.585416,0.177252 -0.850151,0.193663 -1.637936,0.53832 -2.34366,1.007708 0,0 0,0 0,0 -1.903813,1.270303 -3.160986,3.439993 -3.160986,5.905103 v 0.525189 c 0,0.436563 0.35122,0.787783 0.787784,0.787783 0.436564,0 0.787785,-0.35122 0.787785,-0.787783 v -0.525189 c 0,-1.598547 0.679465,-3.036254 1.76595,-4.043962 0.649923,2.478238 2.904957,4.306555 5.5867062,4.306555 h 0.03282 c 4.336098,-0.02298 7.845022,-4.296708 7.845022,-9.565017 0,-1.398316 -0.246184,-2.727703 -0.692594,-3.925791 -0.08535,-0.226488 -0.41687,-0.216641 -0.531754,-0.0033 -0.6171,1.155418 -1.838165,1.939919 -3.239765,1.939919 z"
         id="path182"
         style="stroke-width:0.242595" />
      <path
         style="fill:none;stroke:#000000;stroke-width:1.83379;stroke-linecap:round;stroke-linejoin:round;stroke-dasharray:1.83379, 5.50136;stroke-dashoffset:0;stroke-opacity:1"
         id="path905"
         sodipodi:type="arc"
         sodipodi:cx="26.579264"
         sodipodi:cy="26.607779"
         sodipodi:rx="14.006124"
         sodipodi:ry="14.522081"
         sodipodi:start="3.1490779"
         sodipodi:end="3.1415927"
         sodipodi:arc-type="arc"
         d="M 12.573533,26.499078 A 14.006124,14.522081 0 0 1 26.657893,12.085926 14.006124,14.522081 0 0 1 40.585289,26.662129 14.006124,14.522081 0 0 1 26.553053,41.129834 14.006124,14.522081 0 0 1 12.57314,26.607779"
         sodipodi:open="true" />
      <path
         d="m 16.801162,3.445402 a 2.180652,2.180652 0 1 1 4.361304,0 2.180652,2.180652 0 1 1 -4.361304,0 z m -0.311522,6.14087 c -0.389399,0.43613 -0.623042,1.016339 -0.623042,1.647171 0,0.63083 0.233643,1.211039 0.623042,1.64717 V 9.582378 Z M 22.112609,7.66652 c -1.156524,1.024127 -1.884707,2.523325 -1.884707,4.189966 0,1.335649 0.46728,2.562265 1.246086,3.524087 v 0.837215 c 0,0.689242 -0.556846,1.246086 -1.246086,1.246086 h -2.492175 c -0.689241,0 -1.246087,-0.556844 -1.246087,-1.246086 V 15.17419 c -1.471938,-0.700924 -2.492171,-2.200121 -2.492171,-3.940747 0,-2.410399 1.950904,-4.361303 4.361304,-4.361303 h 1.246086 c 0.934564,0 1.799035,0.292051 2.50775,0.790485 z m 9.330069,8.551268 v -0.837215 c 0.778805,-0.961822 1.246086,-2.188438 1.246086,-3.524087 0,-1.666641 -0.728183,-3.165839 -1.884703,-4.193861 0.708711,-0.498434 1.573181,-0.790485 2.507746,-0.790485 h 1.246089 c 2.410397,0 4.361301,1.950904 4.361301,4.361303 0,1.740626 -1.020233,3.239823 -2.492172,3.940747 v 1.043598 c 0,0.689242 -0.556846,1.246086 -1.246086,1.246086 h -2.492175 c -0.689241,0 -1.246086,-0.556844 -1.246086,-1.246086 z M 31.754199,3.445402 a 2.1806525,2.1806525 0 1 1 4.361305,0 2.1806525,2.1806525 0 1 1 -4.361305,0 z m 4.672826,6.14087 v 3.298235 c 0.389398,-0.440025 0.623042,-1.016339 0.623042,-1.647171 0,-0.630831 -0.233644,-1.21104 -0.623042,-1.64717 z M 26.458336,1.264751 a 2.4921727,2.4921727 0 1 1 0,4.984345 2.4921727,2.4921727 0 1 1 0,-4.984345 z m -3.115219,10.591735 c 0,0.630831 0.23364,1.207146 0.623043,1.64717 v -3.298235 c -0.389403,0.440025 -0.623043,1.01634 -0.623043,1.64717 z m 5.60739,-1.647171 v 3.298235 c 0.389402,-0.440024 0.623042,-1.016339 0.623042,-1.64717 0,-0.630832 -0.23364,-1.211041 -0.623042,-1.647171 z m 2.492171,1.647171 c 0,1.740626 -1.020233,3.239824 -2.492171,3.940748 v 1.66664 c 0,0.689242 -0.556846,1.246086 -1.246086,1.246086 h -2.492175 c -0.68924,0 -1.246086,-0.556844 -1.246086,-1.246086 v -1.66664 c -1.471938,-0.700924 -2.492172,-2.200122 -2.492172,-3.940748 0,-2.410399 1.950904,-4.361303 4.361301,-4.361303 h 1.246089 c 2.410397,0 4.3613,1.950904 4.3613,4.361303 z"
         id="path907"
         style="stroke-width:0.242595" />
      <path
         d="m 40.678765,29.513661 h 4.003116 c 0.553553,0 1.000775,0.447223 1.000775,1.000779 0,0.553555 -0.447222,1.000779 -1.000775,1.000779 h -3.552768 c -0.162626,0.806878 -0.716183,1.473022 -1.45113,1.79202 v 9.216548 h 5.003898 c 0.553553,0 1.000775,0.447223 1.000775,1.00078 0,0.553555 -0.447222,1.000779 -1.000775,1.000779 h -6.004675 -6.004674 c -0.553557,0 -1.000778,-0.447224 -1.000778,-1.000779 0,-0.553557 0.447221,-1.00078 1.000778,-1.00078 h 5.003896 v -9.216548 c -0.734947,-0.322126 -1.288504,-0.988269 -1.451131,-1.79202 h -3.552765 c -0.553557,0 -1.000778,-0.447224 -1.000778,-1.000779 0,-0.553556 0.447221,-1.000779 1.000778,-1.000779 h 4.003115 c 0.456607,-0.606722 1.182171,-1.000779 2.001559,-1.000779 0.819387,0 1.54495,0.394057 2.001559,1.000779 z m 1.738851,9.007011 h 4.531654 l -2.267389,-3.884273 z m 2.264265,3.002337 c -1.967158,0 -3.602806,-1.063328 -3.940567,-2.467547 -0.08132,-0.344016 0.03128,-0.697417 0.209537,-1.003905 l 2.977316,-5.103973 c 0.156375,-0.268959 0.444095,-0.431586 0.753714,-0.431586 0.309613,0 0.597339,0.165754 0.753709,0.431586 l 2.977324,5.103973 c 0.178261,0.306488 0.290846,0.659889 0.209532,1.003905 -0.337763,1.404219 -1.973411,2.467547 -3.940565,2.467547 z m -12.04688,-6.88661 -2.264262,3.884273 h 4.531652 z m -3.93744,4.419063 c -0.08131,-0.344016 0.03128,-0.697417 0.20954,-1.003905 l 2.977318,-5.103973 c 0.156371,-0.268959 0.444093,-0.431586 0.75371,-0.431586 0.309617,0 0.59734,0.165754 0.753714,0.431586 l 2.977317,5.103973 c 0.178263,0.306488 0.29085,0.659889 0.209538,1.003905 -0.340892,1.404219 -1.976541,2.467547 -3.943697,2.467547 -1.967155,0 -3.599675,-1.063328 -3.93744,-2.467547 z"
         id="path916"
         style="stroke-width:0.242595" />
    </g>
  </g>
</svg>
